<?xml version='1.0' encoding='UTF-8' standalone='no'?>
<!-- Created with Fritzing (http://www.fritzing.org/) -->
<svg xmlns="http://www.w3.org/2000/svg" width="1.31111in" x="0in" version="1.2" y="0in"  height="1.54148in" viewBox="0 0 94.3999 110.986" baseProfile="tiny" xmlns:svg="http://www.w3.org/2000/svg">
 <g  id="watermark">
  <g >
   <path fill="#8C8C8C"  d="M-13.4171,108.658L-15.3421,103.094L-15.3771,103.094c0.017,0.214,0.032,0.427,0.044,0.64c0.012,0.183,0.021,0.375,0.028,0.574c0.007,0.203,0.011,0.385,0.011,0.551l0,3.8L-16.0421,108.659L-16.0421,102.303l1.199,0l1.791,5.181l0.025,0l1.8,-5.181L-10.0271,102.303l0,6.354L-10.8361,108.657l0,-3.854c0,-0.15,0.003,-0.324,0.009,-0.518s0.013,-0.38,0.021,-0.557c0.012,-0.207,0.021,-0.416,0.029,-0.625L-10.8091,103.103L-12.7531,108.658L-13.4171,108.658z"/>
   <path fill="#8C8C8C"  d="M-5.71708,108.658l-0.16,-0.661l-0.035,0c-0.095,0.131,-0.19,0.243,-0.286,0.338c-0.095,0.095,-0.2,0.172,-0.313,0.231c-0.113,0.062,-0.239,0.106,-0.378,0.136c-0.141,0.028,-0.3,0.042,-0.482,0.042c-0.2,0,-0.384,-0.026,-0.552,-0.084c-0.168,-0.057,-0.314,-0.144,-0.438,-0.261c-0.122,-0.116,-0.219,-0.265,-0.288,-0.443S-8.75308,107.568,-8.75308,107.323c0,-0.475,0.167,-0.841,0.501,-1.095c0.335,-0.256,0.845,-0.394,1.528,-0.418l0.799,-0.029l0,-0.301c0,-0.193,-0.021,-0.356,-0.063,-0.486s-0.103,-0.234,-0.183,-0.314s-0.178,-0.138,-0.295,-0.172c-0.117,-0.035,-0.251,-0.052,-0.402,-0.052c-0.241,0,-0.464,0.034,-0.671,0.104c-0.207,0.068,-0.407,0.152,-0.597,0.25L-8.41508,104.217c0.214,-0.117,0.453,-0.217,0.717,-0.298c0.264,-0.079,0.54,-0.12,0.83,-0.12c0.296,0,0.551,0.029,0.768,0.09c0.216,0.059,0.395,0.151,0.534,0.28c0.141,0.13,0.247,0.294,0.316,0.494c0.07,0.199,0.104,0.44,0.104,0.726l0,3.269L-5.71708,108.658L-5.71708,108.658zM-7.16808,108.107c0.178,0,0.341,-0.028,0.491,-0.084c0.149,-0.055,0.282,-0.138,0.391,-0.249c0.11,-0.111,0.196,-0.252,0.258,-0.422c0.063,-0.17,0.094,-0.369,0.094,-0.599l0,-0.43l-0.621,0.03c-0.262,0.012,-0.48,0.041,-0.656,0.086c-0.175,0.047,-0.317,0.113,-0.423,0.193c-0.105,0.084,-0.183,0.185,-0.229,0.301c-0.046,0.117,-0.068,0.25,-0.068,0.398c0,0.268,0.069,0.462,0.211,0.586C-7.58108,108.044,-7.39708,108.107,-7.16808,108.107z"/>
   <path fill="#8C8C8C"  d="M-0.73508,108.019l-0.034,0c-0.063,0.099,-0.139,0.191,-0.224,0.281c-0.085,0.088,-0.184,0.165,-0.296,0.231c-0.111,0.066,-0.237,0.118,-0.376,0.156c-0.139,0.037,-0.295,0.056,-0.47,0.056c-0.271,0,-0.517,-0.051,-0.738,-0.154c-0.223,-0.105,-0.416,-0.262,-0.575,-0.469s-0.282,-0.464,-0.369,-0.771c-0.087,-0.309,-0.13,-0.664,-0.13,-1.069c0,-0.408,0.043,-0.767,0.13,-1.076c0.086,-0.31,0.209,-0.567,0.369,-0.774c0.159,-0.209,0.352,-0.367,0.575,-0.473c0.222,-0.105,0.469,-0.158,0.738,-0.158c0.171,0,0.327,0.02,0.466,0.057s0.264,0.088,0.376,0.152c0.112,0.063,0.211,0.137,0.297,0.221s0.163,0.172,0.227,0.266l0.052,0c-0.009,-0.1,-0.018,-0.191,-0.026,-0.283c-0.006,-0.074,-0.012,-0.152,-0.018,-0.232c-0.005,-0.078,-0.009,-0.143,-0.009,-0.188L-0.77008,101.895l0.792,0l0,6.763l-0.641,0L-0.73508,108.019zM-1.98308,108.09c0.221,0,0.407,-0.033,0.56,-0.102c0.151,-0.065,0.274,-0.168,0.37,-0.304c0.094,-0.136,0.163,-0.308,0.209,-0.512c0.044,-0.204,0.069,-0.442,0.076,-0.716l0,-0.177c0,-0.292,-0.02,-0.552,-0.059,-0.78c-0.04,-0.229,-0.105,-0.418,-0.2,-0.574c-0.094,-0.154,-0.219,-0.271,-0.376,-0.351c-0.156,-0.08,-0.352,-0.119,-0.586,-0.119c-0.391,0,-0.679,0.157,-0.861,0.474c-0.185,0.315,-0.277,0.771,-0.277,1.359c0,0.605,0.092,1.058,0.277,1.354C-2.67008,107.94,-2.38008,108.09,-1.98308,108.09z"/>
   <path fill="#8C8C8C"  d="M3.41892,108.744c-0.318,0,-0.609,-0.053,-0.874,-0.16c-0.263,-0.106,-0.49,-0.264,-0.68,-0.469c-0.19,-0.207,-0.338,-0.461,-0.442,-0.766c-0.104,-0.306,-0.156,-0.651,-0.156,-1.045s0.049,-0.744,0.144,-1.055c0.096,-0.311,0.229,-0.574,0.405,-0.789c0.174,-0.216,0.382,-0.381,0.623,-0.492c0.241,-0.113,0.51,-0.17,0.802,-0.17c0.287,0,0.545,0.051,0.772,0.153c0.229,0.104,0.423,0.248,0.583,0.435c0.159,0.188,0.282,0.412,0.367,0.674c0.087,0.263,0.13,0.554,0.13,0.873l0,0.49l-3.008,0c0.015,0.559,0.133,0.971,0.354,1.234c0.222,0.263,0.551,0.396,0.987,0.396c0.149,0,0.285,-0.008,0.411,-0.021s0.248,-0.035,0.365,-0.063c0.118,-0.026,0.23,-0.063,0.342,-0.104s0.222,-0.089,0.334,-0.142l0,0.704c-0.116,0.055,-0.229,0.104,-0.341,0.144c-0.112,0.041,-0.226,0.074,-0.343,0.102c-0.117,0.024,-0.239,0.045,-0.365,0.056S3.56792,108.744,3.41892,108.744zM3.22392,104.456c-0.331,0,-0.592,0.112,-0.783,0.339c-0.193,0.227,-0.307,0.555,-0.338,0.985l2.14,0c0,-0.196,-0.021,-0.378,-0.06,-0.541c-0.039,-0.164,-0.1,-0.304,-0.183,-0.419s-0.187,-0.205,-0.315,-0.27C3.55692,104.486,3.40392,104.456,3.22392,104.456z"/>
   <path fill="#8C8C8C"  d="M12.2329,108.658l-0.729,-2.678c-0.012,-0.053,-0.026,-0.111,-0.044,-0.176c-0.017,-0.065,-0.034,-0.136,-0.051,-0.207c-0.019,-0.072,-0.036,-0.146,-0.055,-0.223c-0.02,-0.074,-0.037,-0.148,-0.055,-0.222c-0.041,-0.169,-0.083,-0.341,-0.126,-0.521l-0.024,0c-0.041,0.182,-0.08,0.356,-0.117,0.524c-0.032,0.146,-0.066,0.294,-0.104,0.448c-0.037,0.152,-0.069,0.283,-0.103,0.391l-0.75,2.66l-0.917,0l-1.221,-4.771l0.83,0l0.57,2.539c0.029,0.129,0.059,0.27,0.086,0.423c0.028,0.151,0.057,0.303,0.082,0.452c0.026,0.148,0.05,0.288,0.07,0.421c0.02,0.132,0.037,0.238,0.049,0.322l0.025,0c0.015,-0.074,0.034,-0.177,0.059,-0.302c0.025,-0.126,0.052,-0.26,0.083,-0.399c0.031,-0.141,0.063,-0.28,0.093,-0.417c0.032,-0.139,0.063,-0.254,0.091,-0.351l0.778,-2.69l0.853,0l0.748,2.69c0.025,0.098,0.056,0.215,0.089,0.348c0.033,0.135,0.065,0.27,0.098,0.407c0.032,0.139,0.061,0.271,0.087,0.397c0.025,0.127,0.045,0.231,0.056,0.315l0.026,0c0.01,-0.074,0.022,-0.177,0.042,-0.302c0.02,-0.126,0.042,-0.265,0.067,-0.415c0.025,-0.149,0.054,-0.306,0.084,-0.464c0.03,-0.157,0.062,-0.306,0.094,-0.44L13.5929,103.885l0.809,0l-1.234,4.771L12.2329,108.656L12.2329,108.658z"/>
   <path fill="#8C8C8C"  d="M15.1879,102.595c0,-0.175,0.045,-0.3,0.133,-0.379c0.088,-0.078,0.197,-0.117,0.328,-0.117c0.063,0,0.123,0.011,0.181,0.028c0.056,0.019,0.104,0.049,0.147,0.089c0.042,0.041,0.075,0.092,0.101,0.154c0.023,0.063,0.037,0.137,0.037,0.224c0,0.168,-0.045,0.293,-0.138,0.376c-0.092,0.083,-0.2,0.123,-0.327,0.123c-0.131,0,-0.24,-0.04,-0.328,-0.12C15.2339,102.892,15.1879,102.765,15.1879,102.595zM16.0399,108.658l-0.791,0L15.2489,103.885l0.791,0L16.0399,108.658z"/>
   <path fill="#8C8C8C"  d="M18.9959,108.097c0.052,0,0.111,-0.003,0.176,-0.01c0.066,-0.006,0.128,-0.013,0.189,-0.021c0.061,-0.009,0.116,-0.019,0.167,-0.031c0.051,-0.011,0.089,-0.021,0.115,-0.028l0,0.6c-0.037,0.017,-0.085,0.035,-0.144,0.052c-0.059,0.018,-0.122,0.033,-0.191,0.046c-0.068,0.015,-0.142,0.022,-0.217,0.03s-0.148,0.011,-0.221,0.011c-0.18,0,-0.347,-0.021,-0.5,-0.068c-0.153,-0.048,-0.286,-0.126,-0.397,-0.239c-0.111,-0.112,-0.198,-0.267,-0.263,-0.458c-0.063,-0.192,-0.095,-0.437,-0.095,-0.729L17.6149,104.481l-0.674,0L16.9409,104.129l0.673,-0.339l0.339,-0.999l0.456,0l0,1.096l1.199,0l0,0.596l-1.199,0l0,2.769c0,0.281,0.045,0.492,0.137,0.636C18.6379,108.026,18.7869,108.097,18.9959,108.097z"/>
   <path fill="#8C8C8C"  d="M23.5509,108.658l0,-3.073c0,-0.377,-0.076,-0.659,-0.228,-0.848c-0.152,-0.188,-0.391,-0.282,-0.715,-0.282c-0.234,0,-0.433,0.037,-0.592,0.111c-0.158,0.076,-0.286,0.188,-0.384,0.336c-0.097,0.148,-0.166,0.328,-0.208,0.544c-0.042,0.214,-0.063,0.461,-0.063,0.739l0,2.473l-0.791,0L20.5699,101.895l0.791,0l0,2.008l-0.034,0.626l0.044,0c0.072,-0.124,0.158,-0.232,0.258,-0.323s0.209,-0.167,0.328,-0.229c0.118,-0.061,0.245,-0.104,0.378,-0.135c0.133,-0.027,0.27,-0.043,0.408,-0.043c0.531,0,0.93,0.139,1.198,0.416c0.268,0.275,0.401,0.719,0.401,1.326l0,3.117L23.5509,108.658L23.5509,108.658z"/>
  </g>
  <g >
   <path fill="#8C8C8C"  d="M45.3109,108.642l-1.324,0L43.9869,102.288l3.642,0l0,1.104l-2.316,0l0,1.639l2.156,0l0,1.1l-2.156,0L45.3109,108.642L45.3109,108.642z"/>
   <path fill="#8C8C8C"  d="M51.3439,103.692c0.035,0,0.074,0.002,0.116,0.002c0.042,0.002,0.083,0.006,0.12,0.01c0.041,0.005,0.076,0.009,0.11,0.014c0.031,0.004,0.059,0.01,0.075,0.016l0,1.244c-0.022,-0.008,-0.056,-0.012,-0.095,-0.018c-0.04,-0.007,-0.083,-0.012,-0.128,-0.018c-0.045,-0.004,-0.09,-0.006,-0.133,-0.008c-0.044,-0.002,-0.08,-0.002,-0.108,-0.002c-0.171,0,-0.328,0.021,-0.472,0.064c-0.146,0.043,-0.269,0.113,-0.37,0.211s-0.183,0.225,-0.239,0.383c-0.057,0.157,-0.084,0.352,-0.084,0.581l0,2.474l-1.326,0L48.8099,103.783l1.005,0l0.194,0.73l0.066,0c0.068,-0.125,0.145,-0.238,0.226,-0.34c0.081,-0.103,0.172,-0.189,0.272,-0.259c0.1,-0.071,0.212,-0.126,0.338,-0.165C51.0369,103.712,51.1829,103.692,51.3439,103.692z"/>
   <path fill="#8C8C8C"  d="M52.6619,102.527c0,-0.125,0.018,-0.228,0.056,-0.311c0.038,-0.084,0.089,-0.15,0.154,-0.2c0.065,-0.051,0.142,-0.086,0.229,-0.106c0.088,-0.02,0.184,-0.03,0.281,-0.03c0.099,0,0.191,0.01,0.277,0.03c0.088,0.02,0.164,0.055,0.229,0.106c0.066,0.05,0.117,0.116,0.156,0.2c0.04,0.083,0.059,0.186,0.059,0.311c0,0.122,-0.019,0.225,-0.059,0.309c-0.039,0.084,-0.09,0.151,-0.156,0.203c-0.063,0.05,-0.142,0.086,-0.229,0.108c-0.086,0.021,-0.18,0.032,-0.277,0.032c-0.099,0,-0.191,-0.012,-0.281,-0.032c-0.088,-0.021,-0.164,-0.059,-0.229,-0.108c-0.065,-0.051,-0.116,-0.119,-0.154,-0.203C52.6809,102.752,52.6619,102.649,52.6619,102.527zM54.0439,108.642l-1.325,0L52.7189,103.783l1.325,0L54.0439,108.642z"/>
   <path fill="#8C8C8C"  d="M57.4529,107.673c0.13,0,0.254,-0.016,0.371,-0.045c0.117,-0.027,0.235,-0.064,0.357,-0.107l0,0.986c-0.124,0.063,-0.278,0.116,-0.463,0.157c-0.184,0.042,-0.385,0.063,-0.603,0.063c-0.211,0,-0.408,-0.024,-0.59,-0.073c-0.185,-0.05,-0.342,-0.137,-0.476,-0.259c-0.133,-0.123,-0.237,-0.288,-0.313,-0.495c-0.077,-0.208,-0.114,-0.468,-0.114,-0.781L55.6219,104.778l-0.636,0L54.9859,104.217l0.729,-0.443l0.383,-1.024l0.848,0l0,1.034l1.184,0l0,0.995l-1.184,0l0,2.343c0,0.188,0.048,0.327,0.141,0.417C57.1799,107.628,57.3019,107.673,57.4529,107.673z"/>
   <path fill="#8C8C8C"  d="M62.3259,108.642L58.7529,108.642l0,-0.781l1.985,-3.064l-1.853,0L58.8849,103.783l3.355,0l0,0.859l-1.92,2.985l2.004,0L62.3259,108.642L62.3259,108.642z"/>
   <path fill="#8C8C8C"  d="M63.2649,102.527c0,-0.125,0.02,-0.228,0.057,-0.311c0.038,-0.084,0.09,-0.15,0.153,-0.2c0.065,-0.051,0.144,-0.086,0.23,-0.106s0.182,-0.03,0.28,-0.03c0.098,0,0.19,0.01,0.277,0.03c0.088,0.02,0.164,0.055,0.229,0.106c0.064,0.05,0.117,0.116,0.156,0.2c0.038,0.083,0.059,0.186,0.059,0.311c0,0.122,-0.021,0.225,-0.059,0.309c-0.039,0.084,-0.092,0.151,-0.156,0.203c-0.064,0.05,-0.143,0.086,-0.229,0.108c-0.086,0.021,-0.18,0.032,-0.277,0.032c-0.099,0,-0.192,-0.012,-0.28,-0.032c-0.088,-0.021,-0.165,-0.059,-0.23,-0.108c-0.063,-0.051,-0.115,-0.119,-0.153,-0.203C63.2839,102.752,63.2649,102.649,63.2649,102.527zM64.6469,108.642L63.3229,108.642L63.3229,103.783l1.324,0L64.6469,108.642z"/>
   <path fill="#8C8C8C"  d="M70.2969,108.642L68.9729,108.642l0,-2.839c0,-0.351,-0.053,-0.613,-0.158,-0.787c-0.105,-0.176,-0.274,-0.265,-0.508,-0.265c-0.173,0,-0.317,0.035,-0.434,0.104c-0.116,0.07,-0.209,0.173,-0.276,0.31c-0.066,0.136,-0.115,0.304,-0.146,0.504c-0.029,0.2,-0.043,0.429,-0.043,0.687l0,2.286L66.0829,108.642L66.0829,103.783l1.012,0l0.181,0.621l0.073,0c0.069,-0.124,0.153,-0.23,0.253,-0.321c0.102,-0.089,0.21,-0.163,0.328,-0.221s0.245,-0.103,0.378,-0.128c0.136,-0.028,0.271,-0.043,0.409,-0.043c0.237,0,0.454,0.033,0.647,0.104c0.194,0.067,0.36,0.174,0.5,0.318c0.141,0.146,0.247,0.328,0.321,0.555c0.075,0.225,0.113,0.492,0.113,0.807l0,3.168L70.2969,108.642L70.2969,108.642z"/>
   <path fill="#8C8C8C"  d="M75.7269,103.792l0,0.722l-0.708,0.221c0.059,0.1,0.1,0.201,0.122,0.308c0.021,0.106,0.033,0.22,0.033,0.343c0,0.246,-0.039,0.471,-0.116,0.676c-0.078,0.203,-0.193,0.379,-0.349,0.522c-0.152,0.146,-0.346,0.258,-0.578,0.337c-0.23,0.08,-0.5,0.119,-0.808,0.119c-0.067,0,-0.141,-0.003,-0.218,-0.012c-0.078,-0.007,-0.137,-0.015,-0.175,-0.021c-0.057,0.049,-0.104,0.101,-0.137,0.152c-0.033,0.054,-0.049,0.117,-0.049,0.193c0,0.061,0.018,0.108,0.056,0.146s0.087,0.065,0.147,0.087c0.06,0.022,0.133,0.036,0.214,0.044s0.165,0.012,0.251,0.012l0.756,0c0.236,0,0.446,0.025,0.631,0.081c0.186,0.055,0.342,0.135,0.472,0.246c0.129,0.109,0.229,0.249,0.299,0.419c0.069,0.169,0.104,0.372,0.104,0.605c0,0.275,-0.054,0.523,-0.164,0.745c-0.109,0.224,-0.274,0.41,-0.494,0.565c-0.219,0.154,-0.488,0.273,-0.813,0.355c-0.324,0.082,-0.699,0.123,-1.126,0.123c-0.329,0,-0.618,-0.031,-0.864,-0.094c-0.247,-0.063,-0.451,-0.15,-0.617,-0.27c-0.165,-0.116,-0.288,-0.258,-0.371,-0.424c-0.084,-0.164,-0.125,-0.353,-0.125,-0.561c0,-0.177,0.031,-0.33,0.093,-0.46c0.061,-0.131,0.143,-0.243,0.243,-0.336c0.102,-0.093,0.218,-0.168,0.347,-0.227c0.129,-0.058,0.262,-0.103,0.396,-0.134c-0.061,-0.026,-0.12,-0.063,-0.181,-0.109c-0.059,-0.047,-0.113,-0.1,-0.161,-0.159c-0.047,-0.063,-0.086,-0.129,-0.116,-0.203c-0.031,-0.072,-0.047,-0.15,-0.047,-0.23c0,-0.093,0.015,-0.178,0.04,-0.252c0.029,-0.076,0.068,-0.146,0.12,-0.212c0.052,-0.064,0.117,-0.126,0.196,-0.184c0.078,-0.06,0.166,-0.117,0.264,-0.18c-0.254,-0.11,-0.456,-0.287,-0.604,-0.53c-0.15,-0.244,-0.225,-0.529,-0.225,-0.859c0,-0.26,0.04,-0.494,0.121,-0.699c0.081,-0.207,0.2,-0.381,0.356,-0.523c0.155,-0.144,0.35,-0.252,0.582,-0.328c0.231,-0.076,0.499,-0.113,0.801,-0.113c0.057,0,0.122,0.004,0.194,0.012s0.145,0.018,0.216,0.025c0.07,0.01,0.137,0.021,0.196,0.033c0.061,0.01,0.109,0.021,0.146,0.029L75.7269,103.792L75.7269,103.792zM72.2499,109.329c0,0.073,0.017,0.145,0.047,0.211c0.03,0.068,0.08,0.129,0.15,0.182c0.068,0.052,0.16,0.094,0.272,0.124c0.113,0.03,0.252,0.046,0.417,0.046c0.452,0,0.792,-0.063,1.021,-0.191c0.229,-0.127,0.343,-0.298,0.343,-0.514c0,-0.183,-0.07,-0.304,-0.213,-0.364c-0.143,-0.06,-0.361,-0.091,-0.66,-0.091l-0.613,0c-0.077,0,-0.162,0.009,-0.252,0.027c-0.09,0.018,-0.172,0.052,-0.248,0.099c-0.075,0.046,-0.139,0.108,-0.188,0.184S72.2499,109.214,72.2499,109.329zM72.7289,105.374c0,0.263,0.049,0.468,0.147,0.612c0.098,0.146,0.248,0.217,0.447,0.217c0.209,0,0.358,-0.07,0.451,-0.217c0.094,-0.145,0.14,-0.35,0.14,-0.612c0,-0.261,-0.046,-0.468,-0.137,-0.622c-0.092,-0.152,-0.243,-0.229,-0.454,-0.229C72.9259,104.522,72.7289,104.805,72.7289,105.374z"/>
   <path fill="#8C8C8C"  d="M76.4769,108.021c0,-0.136,0.02,-0.251,0.059,-0.346c0.04,-0.095,0.094,-0.172,0.163,-0.229c0.069,-0.058,0.149,-0.101,0.244,-0.126c0.092,-0.026,0.191,-0.039,0.299,-0.039c0.102,0,0.198,0.013,0.289,0.039c0.092,0.025,0.172,0.068,0.242,0.126c0.068,0.057,0.123,0.134,0.163,0.229c0.041,0.095,0.062,0.21,0.062,0.346c0,0.13,-0.021,0.242,-0.062,0.335c-0.04,0.093,-0.095,0.17,-0.163,0.229c-0.07,0.062,-0.15,0.104,-0.242,0.133c-0.091,0.027,-0.188,0.042,-0.289,0.042c-0.106,0,-0.207,-0.015,-0.299,-0.042c-0.095,-0.027,-0.175,-0.071,-0.244,-0.133c-0.069,-0.061,-0.123,-0.138,-0.163,-0.229C76.4949,108.263,76.4769,108.151,76.4769,108.021z"/>
   <path fill="#8C8C8C"  d="M83.4359,106.203c0,0.406,-0.052,0.767,-0.153,1.079c-0.104,0.313,-0.251,0.576,-0.443,0.79c-0.192,0.215,-0.428,0.378,-0.704,0.489c-0.277,0.111,-0.587,0.167,-0.933,0.167c-0.321,0,-0.617,-0.056,-0.886,-0.167c-0.271,-0.112,-0.503,-0.274,-0.698,-0.489c-0.195,-0.214,-0.35,-0.479,-0.458,-0.79c-0.11,-0.313,-0.165,-0.673,-0.165,-1.079c0,-0.402,0.051,-0.76,0.154,-1.072c0.103,-0.314,0.25,-0.576,0.442,-0.789C79.7839,104.128,80.0179,103.967,80.2929,103.858s0.587,-0.164,0.937,-0.164c0.319,0,0.615,0.055,0.886,0.164c0.27,0.111,0.502,0.271,0.695,0.484c0.197,0.213,0.351,0.477,0.459,0.789C83.3799,105.443,83.4359,105.801,83.4359,106.203zM80.3499,106.203c0,0.484,0.068,0.851,0.205,1.093c0.137,0.246,0.357,0.368,0.664,0.368c0.306,0,0.524,-0.123,0.66,-0.37c0.137,-0.245,0.205,-0.608,0.205,-1.091s-0.068,-0.846,-0.205,-1.084c-0.136,-0.238,-0.358,-0.357,-0.668,-0.357c-0.305,0,-0.523,0.119,-0.659,0.357C80.4169,105.358,80.3499,105.721,80.3499,106.203z"/>
   <path fill="#8C8C8C"  d="M87.1559,103.692c0.035,0,0.073,0.002,0.115,0.002c0.042,0.002,0.083,0.006,0.12,0.01c0.04,0.005,0.076,0.009,0.109,0.014c0.033,0.004,0.059,0.01,0.076,0.016l0,1.244c-0.023,-0.008,-0.055,-0.012,-0.095,-0.018c-0.041,-0.007,-0.083,-0.012,-0.13,-0.018c-0.045,-0.004,-0.089,-0.006,-0.132,-0.008c-0.045,-0.002,-0.08,-0.002,-0.108,-0.002c-0.171,0,-0.328,0.021,-0.473,0.064c-0.144,0.043,-0.267,0.113,-0.37,0.211c-0.102,0.098,-0.182,0.225,-0.237,0.383c-0.058,0.157,-0.084,0.352,-0.084,0.581l0,2.474l-1.326,0L84.6209,103.783l1.004,0l0.195,0.73l0.065,0c0.068,-0.125,0.146,-0.238,0.226,-0.34c0.081,-0.103,0.172,-0.189,0.271,-0.259c0.101,-0.071,0.213,-0.126,0.339,-0.165C86.8499,103.712,86.9939,103.692,87.1559,103.692z"/>
   <path fill="#8C8C8C"  d="M92.4639,103.792l0,0.722l-0.708,0.221c0.058,0.1,0.099,0.201,0.121,0.308s0.034,0.22,0.034,0.343c0,0.246,-0.039,0.471,-0.116,0.676c-0.079,0.203,-0.194,0.379,-0.349,0.522c-0.153,0.146,-0.348,0.258,-0.578,0.337c-0.232,0.08,-0.501,0.119,-0.809,0.119c-0.067,0,-0.141,-0.003,-0.219,-0.012c-0.078,-0.007,-0.135,-0.015,-0.173,-0.021c-0.058,0.049,-0.104,0.101,-0.137,0.152c-0.034,0.054,-0.05,0.117,-0.05,0.193c0,0.061,0.019,0.108,0.057,0.146c0.037,0.037,0.086,0.065,0.146,0.087c0.062,0.021,0.133,0.036,0.215,0.044c0.08,0.008,0.164,0.012,0.251,0.012l0.756,0c0.234,0,0.445,0.025,0.63,0.081c0.186,0.055,0.343,0.135,0.472,0.246c0.129,0.109,0.229,0.249,0.298,0.419c0.07,0.169,0.104,0.372,0.104,0.605c0,0.275,-0.054,0.523,-0.165,0.745c-0.109,0.224,-0.275,0.41,-0.493,0.565c-0.219,0.154,-0.489,0.273,-0.815,0.355c-0.323,0.082,-0.698,0.123,-1.125,0.123c-0.329,0,-0.617,-0.031,-0.864,-0.094c-0.246,-0.063,-0.451,-0.15,-0.617,-0.27c-0.164,-0.116,-0.287,-0.258,-0.371,-0.424c-0.083,-0.164,-0.124,-0.353,-0.124,-0.561c0,-0.177,0.03,-0.33,0.091,-0.46c0.063,-0.131,0.144,-0.243,0.244,-0.336c0.103,-0.093,0.217,-0.168,0.346,-0.227c0.129,-0.058,0.263,-0.103,0.398,-0.134c-0.062,-0.026,-0.121,-0.063,-0.182,-0.109c-0.06,-0.047,-0.113,-0.1,-0.16,-0.159c-0.047,-0.063,-0.087,-0.129,-0.117,-0.203c-0.03,-0.073,-0.045,-0.151,-0.045,-0.231c0,-0.093,0.014,-0.178,0.04,-0.252c0.027,-0.076,0.067,-0.146,0.12,-0.212c0.051,-0.064,0.117,-0.126,0.194,-0.184c0.078,-0.06,0.166,-0.117,0.266,-0.18c-0.255,-0.109,-0.456,-0.287,-0.606,-0.529c-0.148,-0.244,-0.223,-0.531,-0.223,-0.861c0,-0.26,0.039,-0.493,0.121,-0.698c0.081,-0.207,0.199,-0.382,0.354,-0.524c0.156,-0.143,0.351,-0.252,0.583,-0.328c0.231,-0.074,0.499,-0.111,0.8,-0.111c0.059,0,0.123,0.003,0.195,0.011s0.146,0.017,0.215,0.026c0.072,0.009,0.138,0.021,0.198,0.031c0.062,0.012,0.108,0.021,0.145,0.03L92.4639,103.791L92.4639,103.792zM88.9879,109.329c0,0.073,0.017,0.145,0.046,0.211c0.031,0.068,0.081,0.129,0.149,0.182c0.07,0.052,0.161,0.094,0.273,0.124c0.114,0.03,0.252,0.046,0.418,0.046c0.451,0,0.792,-0.063,1.021,-0.191c0.229,-0.127,0.343,-0.298,0.343,-0.514c0,-0.183,-0.071,-0.304,-0.214,-0.364s-0.361,-0.091,-0.66,-0.091l-0.612,0c-0.079,0,-0.163,0.009,-0.252,0.027c-0.09,0.019,-0.173,0.052,-0.248,0.099c-0.076,0.046,-0.139,0.108,-0.188,0.184C89.0139,109.116,88.9879,109.214,88.9879,109.329zM89.4649,105.374c0,0.263,0.049,0.468,0.148,0.612c0.099,0.146,0.248,0.217,0.447,0.217c0.209,0,0.358,-0.07,0.451,-0.217c0.094,-0.145,0.141,-0.35,0.141,-0.612c0,-0.261,-0.046,-0.468,-0.138,-0.622c-0.092,-0.152,-0.243,-0.229,-0.454,-0.229C89.6629,104.522,89.4649,104.805,89.4649,105.374z"/>
  </g>
  <g >
   <path fill="#8C8C8C"  d="M38.0579,100.912l-8.146,0c-0.532,0,-0.965,0.432,-0.965,0.964l0,8.146c0,0.531,0.433,0.964,0.965,0.964l5.55,0l3.557,-3.558L39.0189,101.876C39.0219,101.343,38.5899,100.912,38.0579,100.912zM36.3809,104.641l-1.075,0l0,0.401l1.075,0l0,1.601l-2.196,0l0,2.058l-2.572,0l0,-4.67l0.988,-0.99l3.779,0l0,1.603l0.001,0L36.3809,104.641z"/>
  </g>
 </g>
 <g partID="6411180">
  <g transform="translate(2.72374,8.16842)">
   <g  id="breadboardbreadboard">
    <path fill="#deb675"  stroke="none" fill-opacity="1" id="boardoutline" stroke-width="0" d="M0,0L50.4,0,50.4,86.4,0,86.4zM5.94,7.2a1.26,1.26,0,1,0,2.52,0,1.26,1.26,0,1,0,-2.52,0zM13.14,7.2a1.26,1.26,0,1,0,2.52,0,1.26,1.26,0,1,0,-2.52,0zM20.34,7.2a1.26,1.26,0,1,0,2.52,0,1.26,1.26,0,1,0,-2.52,0zM27.54,7.2a1.26,1.26,0,1,0,2.52,0,1.26,1.26,0,1,0,-2.52,0zM34.74,7.2a1.26,1.26,0,1,0,2.52,0,1.26,1.26,0,1,0,-2.52,0zM41.94,7.2a1.26,1.26,0,1,0,2.52,0,1.26,1.26,0,1,0,-2.52,0zM5.94,14.4a1.26,1.26,0,1,0,2.52,0,1.26,1.26,0,1,0,-2.52,0zM13.14,14.4a1.26,1.26,0,1,0,2.52,0,1.26,1.26,0,1,0,-2.52,0zM20.34,14.4a1.26,1.26,0,1,0,2.52,0,1.26,1.26,0,1,0,-2.52,0zM27.54,14.4a1.26,1.26,0,1,0,2.52,0,1.26,1.26,0,1,0,-2.52,0zM34.74,14.4a1.26,1.26,0,1,0,2.52,0,1.26,1.26,0,1,0,-2.52,0zM41.94,14.4a1.26,1.26,0,1,0,2.52,0,1.26,1.26,0,1,0,-2.52,0zM5.94,21.6a1.26,1.26,0,1,0,2.52,0,1.26,1.26,0,1,0,-2.52,0zM13.14,21.6a1.26,1.26,0,1,0,2.52,0,1.26,1.26,0,1,0,-2.52,0zM20.34,21.6a1.26,1.26,0,1,0,2.52,0,1.26,1.26,0,1,0,-2.52,0zM27.54,21.6a1.26,1.26,0,1,0,2.52,0,1.26,1.26,0,1,0,-2.52,0zM34.74,21.6a1.26,1.26,0,1,0,2.52,0,1.26,1.26,0,1,0,-2.52,0zM41.94,21.6a1.26,1.26,0,1,0,2.52,0,1.26,1.26,0,1,0,-2.52,0zM5.94,28.8a1.26,1.26,0,1,0,2.52,0,1.26,1.26,0,1,0,-2.52,0zM13.14,28.8a1.26,1.26,0,1,0,2.52,0,1.26,1.26,0,1,0,-2.52,0zM20.34,28.8a1.26,1.26,0,1,0,2.52,0,1.26,1.26,0,1,0,-2.52,0zM27.54,28.8a1.26,1.26,0,1,0,2.52,0,1.26,1.26,0,1,0,-2.52,0zM34.74,28.8a1.26,1.26,0,1,0,2.52,0,1.26,1.26,0,1,0,-2.52,0zM41.94,28.8a1.26,1.26,0,1,0,2.52,0,1.26,1.26,0,1,0,-2.52,0zM5.94,36a1.26,1.26,0,1,0,2.52,0,1.26,1.26,0,1,0,-2.52,0zM13.14,36a1.26,1.26,0,1,0,2.52,0,1.26,1.26,0,1,0,-2.52,0zM20.34,36a1.26,1.26,0,1,0,2.52,0,1.26,1.26,0,1,0,-2.52,0zM27.54,36a1.26,1.26,0,1,0,2.52,0,1.26,1.26,0,1,0,-2.52,0zM34.74,36a1.26,1.26,0,1,0,2.52,0,1.26,1.26,0,1,0,-2.52,0zM41.94,36a1.26,1.26,0,1,0,2.52,0,1.26,1.26,0,1,0,-2.52,0zM5.94,43.2a1.26,1.26,0,1,0,2.52,0,1.26,1.26,0,1,0,-2.52,0zM13.14,43.2a1.26,1.26,0,1,0,2.52,0,1.26,1.26,0,1,0,-2.52,0zM20.34,43.2a1.26,1.26,0,1,0,2.52,0,1.26,1.26,0,1,0,-2.52,0zM27.54,43.2a1.26,1.26,0,1,0,2.52,0,1.26,1.26,0,1,0,-2.52,0zM34.74,43.2a1.26,1.26,0,1,0,2.52,0,1.26,1.26,0,1,0,-2.52,0zM41.94,43.2a1.26,1.26,0,1,0,2.52,0,1.26,1.26,0,1,0,-2.52,0zM5.94,50.4a1.26,1.26,0,1,0,2.52,0,1.26,1.26,0,1,0,-2.52,0zM13.14,50.4a1.26,1.26,0,1,0,2.52,0,1.26,1.26,0,1,0,-2.52,0zM20.34,50.4a1.26,1.26,0,1,0,2.52,0,1.26,1.26,0,1,0,-2.52,0zM27.54,50.4a1.26,1.26,0,1,0,2.52,0,1.26,1.26,0,1,0,-2.52,0zM34.74,50.4a1.26,1.26,0,1,0,2.52,0,1.26,1.26,0,1,0,-2.52,0zM41.94,50.4a1.26,1.26,0,1,0,2.52,0,1.26,1.26,0,1,0,-2.52,0zM5.94,57.6a1.26,1.26,0,1,0,2.52,0,1.26,1.26,0,1,0,-2.52,0zM13.14,57.6a1.26,1.26,0,1,0,2.52,0,1.26,1.26,0,1,0,-2.52,0zM20.34,57.6a1.26,1.26,0,1,0,2.52,0,1.26,1.26,0,1,0,-2.52,0zM27.54,57.6a1.26,1.26,0,1,0,2.52,0,1.26,1.26,0,1,0,-2.52,0zM34.74,57.6a1.26,1.26,0,1,0,2.52,0,1.26,1.26,0,1,0,-2.52,0zM41.94,57.6a1.26,1.26,0,1,0,2.52,0,1.26,1.26,0,1,0,-2.52,0zM5.94,64.8a1.26,1.26,0,1,0,2.52,0,1.26,1.26,0,1,0,-2.52,0zM13.14,64.8a1.26,1.26,0,1,0,2.52,0,1.26,1.26,0,1,0,-2.52,0zM20.34,64.8a1.26,1.26,0,1,0,2.52,0,1.26,1.26,0,1,0,-2.52,0zM27.54,64.8a1.26,1.26,0,1,0,2.52,0,1.26,1.26,0,1,0,-2.52,0zM34.74,64.8a1.26,1.26,0,1,0,2.52,0,1.26,1.26,0,1,0,-2.52,0zM41.94,64.8a1.26,1.26,0,1,0,2.52,0,1.26,1.26,0,1,0,-2.52,0zM5.94,72a1.26,1.26,0,1,0,2.52,0,1.26,1.26,0,1,0,-2.52,0zM13.14,72a1.26,1.26,0,1,0,2.52,0,1.26,1.26,0,1,0,-2.52,0zM20.34,72a1.26,1.26,0,1,0,2.52,0,1.26,1.26,0,1,0,-2.52,0zM27.54,72a1.26,1.26,0,1,0,2.52,0,1.26,1.26,0,1,0,-2.52,0zM34.74,72a1.26,1.26,0,1,0,2.52,0,1.26,1.26,0,1,0,-2.52,0zM41.94,72a1.26,1.26,0,1,0,2.52,0,1.26,1.26,0,1,0,-2.52,0zM5.94,79.2a1.26,1.26,0,1,0,2.52,0,1.26,1.26,0,1,0,-2.52,0zM13.14,79.2a1.26,1.26,0,1,0,2.52,0,1.26,1.26,0,1,0,-2.52,0zM20.34,79.2a1.26,1.26,0,1,0,2.52,0,1.26,1.26,0,1,0,-2.52,0zM27.54,79.2a1.26,1.26,0,1,0,2.52,0,1.26,1.26,0,1,0,-2.52,0zM34.74,79.2a1.26,1.26,0,1,0,2.52,0,1.26,1.26,0,1,0,-2.52,0zM41.94,79.2a1.26,1.26,0,1,0,2.52,0,1.26,1.26,0,1,0,-2.52,0z"/>
    <path stroke-opacity="1" fill="none"  stroke="#deb675" stroke-width="0.576" d="M0.288,0.288L49.824,0.288,49.824,85.824,0.288,85.824z"/>
    <circle fill="none" cx="7.2"  cy="7.2" connectorname="0.0" stroke="#c49c59" r="1.98" id="connector0pin" stroke-width="1.44"/>
    <circle fill="none" cx="14.4"  cy="7.2" connectorname="1.0" stroke="#c49c59" r="1.98" id="connector1pin" stroke-width="1.44"/>
    <circle fill="none" cx="21.6"  cy="7.2" connectorname="2.0" stroke="#c49c59" r="1.98" id="connector2pin" stroke-width="1.44"/>
    <circle fill="none" cx="28.8"  cy="7.2" connectorname="3.0" stroke="#c49c59" r="1.98" id="connector3pin" stroke-width="1.44"/>
    <circle fill="none" cx="36"  cy="7.2" connectorname="4.0" stroke="#c49c59" r="1.98" id="connector4pin" stroke-width="1.44"/>
    <circle fill="none" cx="43.2"  cy="7.2" connectorname="5.0" stroke="#c49c59" r="1.98" id="connector5pin" stroke-width="1.44"/>
    <circle fill="none" cx="7.2"  cy="14.4" connectorname="0.1" stroke="#c49c59" r="1.98" id="connector1000pin" stroke-width="1.44"/>
    <circle fill="none" cx="14.4"  cy="14.4" connectorname="1.1" stroke="#c49c59" r="1.98" id="connector1001pin" stroke-width="1.44"/>
    <circle fill="none" cx="21.6"  cy="14.4" connectorname="2.1" stroke="#c49c59" r="1.98" id="connector1002pin" stroke-width="1.44"/>
    <circle fill="none" cx="28.8"  cy="14.4" connectorname="3.1" stroke="#c49c59" r="1.98" id="connector1003pin" stroke-width="1.44"/>
    <circle fill="none" cx="36"  cy="14.4" connectorname="4.1" stroke="#c49c59" r="1.98" id="connector1004pin" stroke-width="1.44"/>
    <circle fill="none" cx="43.2"  cy="14.4" connectorname="5.1" stroke="#c49c59" r="1.98" id="connector1005pin" stroke-width="1.44"/>
    <circle fill="none" cx="7.2"  cy="21.6" connectorname="0.2" stroke="#c49c59" r="1.98" id="connector2000pin" stroke-width="1.44"/>
    <circle fill="none" cx="14.4"  cy="21.6" connectorname="1.2" stroke="#c49c59" r="1.98" id="connector2001pin" stroke-width="1.44"/>
    <circle fill="none" cx="21.6"  cy="21.6" connectorname="2.2" stroke="#c49c59" r="1.98" id="connector2002pin" stroke-width="1.44"/>
    <circle fill="none" cx="28.8"  cy="21.6" connectorname="3.2" stroke="#c49c59" r="1.98" id="connector2003pin" stroke-width="1.44"/>
    <circle fill="none" cx="36"  cy="21.6" connectorname="4.2" stroke="#c49c59" r="1.98" id="connector2004pin" stroke-width="1.44"/>
    <circle fill="none" cx="43.2"  cy="21.6" connectorname="5.2" stroke="#c49c59" r="1.98" id="connector2005pin" stroke-width="1.44"/>
    <circle fill="none" cx="7.2"  cy="28.8" connectorname="0.3" stroke="#c49c59" r="1.98" id="connector3000pin" stroke-width="1.44"/>
    <circle fill="none" cx="14.4"  cy="28.8" connectorname="1.3" stroke="#c49c59" r="1.98" id="connector3001pin" stroke-width="1.44"/>
    <circle fill="none" cx="21.6"  cy="28.8" connectorname="2.3" stroke="#c49c59" r="1.98" id="connector3002pin" stroke-width="1.44"/>
    <circle fill="none" cx="28.8"  cy="28.8" connectorname="3.3" stroke="#c49c59" r="1.98" id="connector3003pin" stroke-width="1.44"/>
    <circle fill="none" cx="36"  cy="28.8" connectorname="4.3" stroke="#c49c59" r="1.98" id="connector3004pin" stroke-width="1.44"/>
    <circle fill="none" cx="43.2"  cy="28.8" connectorname="5.3" stroke="#c49c59" r="1.98" id="connector3005pin" stroke-width="1.44"/>
    <circle fill="none" cx="7.2"  cy="36" connectorname="0.4" stroke="#c49c59" r="1.98" id="connector4000pin" stroke-width="1.44"/>
    <circle fill="none" cx="14.4"  cy="36" connectorname="1.4" stroke="#c49c59" r="1.98" id="connector4001pin" stroke-width="1.44"/>
    <circle fill="none" cx="21.6"  cy="36" connectorname="2.4" stroke="#c49c59" r="1.98" id="connector4002pin" stroke-width="1.44"/>
    <circle fill="none" cx="28.8"  cy="36" connectorname="3.4" stroke="#c49c59" r="1.98" id="connector4003pin" stroke-width="1.44"/>
    <circle fill="none" cx="36"  cy="36" connectorname="4.4" stroke="#c49c59" r="1.98" id="connector4004pin" stroke-width="1.44"/>
    <circle fill="none" cx="43.2"  cy="36" connectorname="5.4" stroke="#c49c59" r="1.98" id="connector4005pin" stroke-width="1.44"/>
    <circle fill="none" cx="7.2"  cy="43.2" connectorname="0.5" stroke="#c49c59" r="1.98" id="connector5000pin" stroke-width="1.44"/>
    <circle fill="none" cx="14.4"  cy="43.2" connectorname="1.5" stroke="#c49c59" r="1.98" id="connector5001pin" stroke-width="1.44"/>
    <circle fill="none" cx="21.6"  cy="43.2" connectorname="2.5" stroke="#c49c59" r="1.98" id="connector5002pin" stroke-width="1.44"/>
    <circle fill="none" cx="28.8"  cy="43.2" connectorname="3.5" stroke="#c49c59" r="1.98" id="connector5003pin" stroke-width="1.44"/>
    <circle fill="none" cx="36"  cy="43.2" connectorname="4.5" stroke="#c49c59" r="1.98" id="connector5004pin" stroke-width="1.44"/>
    <circle fill="none" cx="43.2"  cy="43.2" connectorname="5.5" stroke="#c49c59" r="1.98" id="connector5005pin" stroke-width="1.44"/>
    <circle fill="none" cx="7.2"  cy="50.4" connectorname="0.6" stroke="#c49c59" r="1.98" id="connector6000pin" stroke-width="1.44"/>
    <circle fill="none" cx="14.4"  cy="50.4" connectorname="1.6" stroke="#c49c59" r="1.98" id="connector6001pin" stroke-width="1.44"/>
    <circle fill="none" cx="21.6"  cy="50.4" connectorname="2.6" stroke="#c49c59" r="1.98" id="connector6002pin" stroke-width="1.44"/>
    <circle fill="none" cx="28.8"  cy="50.4" connectorname="3.6" stroke="#c49c59" r="1.98" id="connector6003pin" stroke-width="1.44"/>
    <circle fill="none" cx="36"  cy="50.4" connectorname="4.6" stroke="#c49c59" r="1.98" id="connector6004pin" stroke-width="1.44"/>
    <circle fill="none" cx="43.2"  cy="50.4" connectorname="5.6" stroke="#c49c59" r="1.98" id="connector6005pin" stroke-width="1.44"/>
    <circle fill="none" cx="7.2"  cy="57.6" connectorname="0.7" stroke="#c49c59" r="1.98" id="connector7000pin" stroke-width="1.44"/>
    <circle fill="none" cx="14.4"  cy="57.6" connectorname="1.7" stroke="#c49c59" r="1.98" id="connector7001pin" stroke-width="1.44"/>
    <circle fill="none" cx="21.6"  cy="57.6" connectorname="2.7" stroke="#c49c59" r="1.98" id="connector7002pin" stroke-width="1.44"/>
    <circle fill="none" cx="28.8"  cy="57.6" connectorname="3.7" stroke="#c49c59" r="1.98" id="connector7003pin" stroke-width="1.44"/>
    <circle fill="none" cx="36"  cy="57.6" connectorname="4.7" stroke="#c49c59" r="1.98" id="connector7004pin" stroke-width="1.44"/>
    <circle fill="none" cx="43.2"  cy="57.6" connectorname="5.7" stroke="#c49c59" r="1.98" id="connector7005pin" stroke-width="1.44"/>
    <circle fill="none" cx="7.2"  cy="64.8" connectorname="0.8" stroke="#c49c59" r="1.98" id="connector8000pin" stroke-width="1.44"/>
    <circle fill="none" cx="14.4"  cy="64.8" connectorname="1.8" stroke="#c49c59" r="1.98" id="connector8001pin" stroke-width="1.44"/>
    <circle fill="none" cx="21.6"  cy="64.8" connectorname="2.8" stroke="#c49c59" r="1.98" id="connector8002pin" stroke-width="1.44"/>
    <circle fill="none" cx="28.8"  cy="64.8" connectorname="3.8" stroke="#c49c59" r="1.98" id="connector8003pin" stroke-width="1.44"/>
    <circle fill="none" cx="36"  cy="64.8" connectorname="4.8" stroke="#c49c59" r="1.98" id="connector8004pin" stroke-width="1.44"/>
    <circle fill="none" cx="43.2"  cy="64.8" connectorname="5.8" stroke="#c49c59" r="1.98" id="connector8005pin" stroke-width="1.44"/>
    <circle fill="none" cx="7.2"  cy="72" connectorname="0.9" stroke="#c49c59" r="1.98" id="connector9000pin" stroke-width="1.44"/>
    <circle fill="none" cx="14.4"  cy="72" connectorname="1.9" stroke="#c49c59" r="1.98" id="connector9001pin" stroke-width="1.44"/>
    <circle fill="none" cx="21.6"  cy="72" connectorname="2.9" stroke="#c49c59" r="1.98" id="connector9002pin" stroke-width="1.44"/>
    <circle fill="none" cx="28.8"  cy="72" connectorname="3.9" stroke="#c49c59" r="1.98" id="connector9003pin" stroke-width="1.44"/>
    <circle fill="none" cx="36"  cy="72" connectorname="4.9" stroke="#c49c59" r="1.98" id="connector9004pin" stroke-width="1.44"/>
    <circle fill="none" cx="43.2"  cy="72" connectorname="5.9" stroke="#c49c59" r="1.98" id="connector9005pin" stroke-width="1.44"/>
    <circle fill="none" cx="7.2"  cy="79.2" connectorname="0.10" stroke="#c49c59" r="1.98" id="connector10000pin" stroke-width="1.44"/>
    <circle fill="none" cx="14.4"  cy="79.2" connectorname="1.10" stroke="#c49c59" r="1.98" id="connector10001pin" stroke-width="1.44"/>
    <circle fill="none" cx="21.6"  cy="79.2" connectorname="2.10" stroke="#c49c59" r="1.98" id="connector10002pin" stroke-width="1.44"/>
    <circle fill="none" cx="28.8"  cy="79.2" connectorname="3.10" stroke="#c49c59" r="1.98" id="connector10003pin" stroke-width="1.44"/>
    <circle fill="none" cx="36"  cy="79.2" connectorname="4.10" stroke="#c49c59" r="1.98" id="connector10004pin" stroke-width="1.44"/>
    <circle fill="none" cx="43.2"  cy="79.2" connectorname="5.10" stroke="#c49c59" r="1.98" id="connector10005pin" stroke-width="1.44"/>
   </g>
  </g>
 </g>
 <g partID="6389560">
  <g transform="translate(27.9202,77.2945)">
   <g  id="breadboard">
    <polygon fill="#254E89" points="21.3129,2.87631,21.3129,0,0,0,0,2.87631,0.287157,2.87631,0.287157,5.21324,0,5.21324,0,11.3477,21.3129,11.3477,21.3129,5.21324,21.6,5.21324,21.6,2.87631"  id="background"/>
    <rect width="21.0776" x="0.126428" y="0.171482" fill="#456DAB"  height="0.414746" id="upperstripe" stroke-width="0"/>
    <rect width="21.3129" x="0" y="6.20026" fill="#123C66"  height="5.14644" id="lowerrect" stroke-width="0"/>
    <g  id="plus0" transform="translate(0,0)">
     <g >
      <path fill="#3A5C8E"  d="M3.53017,5.90316c1.37208,0,2.48935,-1.13457,2.48935,-2.53235L1.03985,3.37081C1.03886,4.76958,2.15515,5.90316,3.53017,5.90316z"/>
      <path fill="#123C66"  d="M3.53017,0.839462c-1.37404,0,-2.49033,1.13557,-2.49033,2.53135l4.97968,0C6.01952,1.97304,4.90422,0.839462,3.53017,0.839462z"/>
     </g>
     <g >
      <g >
       <path fill="#8B8B8B"  d="M3.53017,5.4246c-1.11531,0,-2.02088,-0.921218,-2.02088,-2.05579c0,-1.13257,0.905573,-2.05479,2.02088,-2.05479c1.11433,0,2.0199,0.921218,2.0199,2.05479C5.54909,4.50338,4.64352,5.4246,3.53017,5.4246L3.53017,5.4246z"/>
       <path  d="M3.53017,1.35391c1.09472,0,1.9807,0.903269,1.9807,2.01491c0,1.11264,-0.885974,2.01591,-1.9807,2.01591S1.54751,4.48145,1.54751,3.36882C1.54653,2.25718,2.43446,1.35391,3.53017,1.35391M3.53017,1.28013c-1.13393,0,-2.05812,0.938167,-2.05812,2.09168c0,1.15351,0.922234,2.09367,2.05812,2.09367c1.13197,0,2.05616,-0.937166,2.05616,-2.09367C5.58536,2.21829,4.66312,1.28013,3.53017,1.28013L3.53017,1.28013z"/>
      </g>
      <g >
       <path fill="#707070"  d="M1.6073,2.89724C1.57103,3.04978,1.54653,3.2093,1.54653,3.37181c0,0.164503,0.0245015,0.321029,0.0607636,0.477557l3.84379,0c0.0362622,-0.152539,0.0607636,-0.311059,0.0607636,-0.477557c0,-0.162509,-0.0225413,-0.319036,-0.0607636,-0.474566L1.6073,2.89724z"/>
      </g>
      <g >
       <rect width="0.933019" x="3.06269" y="1.66198" fill="#545252"  height="3.41767" stroke-width="0"/>
       <rect width="2.9392" x="2.06009" y="2.89724" fill="#545252"  height="0.948132" stroke-width="0"/>
      </g>
      <g opacity="0.5" >
       <path  d="M3.53017,1.5204c1.00064,0,1.81703,0.830491,1.81703,1.84841c0,1.01992,-0.816386,1.84941,-1.81703,1.84941c-1.0026,0,-1.81899,-0.830491,-1.81899,-1.84941C1.7102,2.35089,2.52659,1.5204,3.53017,1.5204M3.53017,1.35391c-1.09472,0,-1.98266,0.903269,-1.98266,2.01491c0,1.11264,0.887933,2.01591,1.98266,2.01591s1.9807,-0.903269,1.9807,-2.01591C5.51283,2.25718,4.6249,1.35391,3.53017,1.35391L3.53017,1.35391z"/>
      </g>
     </g>
    </g>
    <g  id="maul0" transform="translate(0,0)">
     <rect width="4.98066" x="1.03886" y="6.76555" fill="#103656"  height="2.02687" stroke-width="0"/>
     <rect width="4.98066" x="1.03886" y="8.79343" fill="#254E89"  height="2.10264" stroke-width="0"/>
     <rect width="2.43839" x="2.31" y="8.81935" fill="#254E89"  height="2.52536" stroke-width="0"/>
     <rect width="4.57492" x="1.24271" y="6.94301" fill="#8D8C8C"  height="3.8065" stroke-width="0"/>
     <path fill="#A0A0A0"  d="M3.53017,10.5262c1.08492,0,1.96795,-0.654023,1.96795,-1.46557l-3.93983,0C1.56025,9.87214,2.4423,10.5262,3.53017,10.5262z"/>
     <path fill="#565656"  d="M3.53017,7.60205c-1.08688,0,-1.97188,0.654023,-1.97188,1.46258l3.93983,0C5.49715,8.25602,4.61706,7.60205,3.53017,7.60205z"/>
     <ellipse fill="#383838" cx="3.52919"  cy="9.06458" rx="1.52693" ry="1.13457" stroke-width="0"/>
     <g >
      <polygon fill="#919291" points="2.22081,8.38562,1.57201,7.46143,1.24271,7.43551,1.30446,6.9161,5.81763,6.9799,5.7549,7.4993,5.54321,7.43551,4.82483,8.38562" />
      <g >
       <path fill="#57585A"  d="M5.69218,7.04371l0,0.328008L5.54419,7.37172L5.48049,7.37172L5.44422,7.42356L4.79444,8.32183L2.28354,8.32183L1.62297,7.42255L1.58476,7.37172L1.52301,7.37172L1.36914,7.37172L1.36914,7.04371L5.69218,7.04371M5.81763,6.9161L1.24271,6.9161l0,0.583237l0.279317,0l0.698782,0.950126l2.6344,0l0.687021,-0.950126l0.273437,0L5.81763,6.9161L5.81763,6.9161z"/>
      </g>
     </g>
     <rect width="2.05224" x="2.50405" y="10.7356" fill="#8C8C8C"  height="1.50047" stroke-width="0"/>
    </g>
    <rect width="2.26969" x="2.46876" y="7.91093" fill="none"  height="4.32608" id="connector0pin" stroke-width="0"/>
    <g  id="plus1" transform="matrix(1, 0, 0, 1, 7.2, 0)">
     <g >
      <path fill="#3A5C8E"  d="M3.53017,5.90316c1.37208,0,2.48935,-1.13457,2.48935,-2.53235L1.03985,3.37081C1.03886,4.76958,2.15515,5.90316,3.53017,5.90316z"/>
      <path fill="#123C66"  d="M3.53017,0.839462c-1.37404,0,-2.49033,1.13557,-2.49033,2.53135l4.97968,0C6.01952,1.97304,4.90422,0.839462,3.53017,0.839462z"/>
     </g>
     <g >
      <g >
       <path fill="#8B8B8B"  d="M3.53017,5.4246c-1.11531,0,-2.02088,-0.921218,-2.02088,-2.05579c0,-1.13257,0.905573,-2.05479,2.02088,-2.05479c1.11433,0,2.0199,0.921218,2.0199,2.05479C5.54909,4.50338,4.64352,5.4246,3.53017,5.4246L3.53017,5.4246z"/>
       <path  d="M3.53017,1.35391c1.09472,0,1.9807,0.903269,1.9807,2.01491c0,1.11264,-0.885974,2.01591,-1.9807,2.01591S1.54751,4.48145,1.54751,3.36882C1.54653,2.25718,2.43446,1.35391,3.53017,1.35391M3.53017,1.28013c-1.13393,0,-2.05812,0.938167,-2.05812,2.09168c0,1.15351,0.922234,2.09367,2.05812,2.09367c1.13197,0,2.05616,-0.937166,2.05616,-2.09367C5.58536,2.21829,4.66312,1.28013,3.53017,1.28013L3.53017,1.28013z"/>
      </g>
      <g >
       <path fill="#707070"  d="M1.6073,2.89724C1.57103,3.04978,1.54653,3.2093,1.54653,3.37181c0,0.164503,0.0245015,0.321029,0.0607636,0.477557l3.84379,0c0.0362622,-0.152539,0.0607636,-0.311059,0.0607636,-0.477557c0,-0.162509,-0.0225413,-0.319036,-0.0607636,-0.474566L1.6073,2.89724z"/>
      </g>
      <g >
       <rect width="0.933019" x="3.06269" y="1.66198" fill="#545252"  height="3.41767" stroke-width="0"/>
       <rect width="2.9392" x="2.06009" y="2.89724" fill="#545252"  height="0.948132" stroke-width="0"/>
      </g>
      <g opacity="0.5" >
       <path  d="M3.53017,1.5204c1.00064,0,1.81703,0.830491,1.81703,1.84841c0,1.01992,-0.816386,1.84941,-1.81703,1.84941c-1.0026,0,-1.81899,-0.830491,-1.81899,-1.84941C1.7102,2.35089,2.52659,1.5204,3.53017,1.5204M3.53017,1.35391c-1.09472,0,-1.98266,0.903269,-1.98266,2.01491c0,1.11264,0.887933,2.01591,1.98266,2.01591s1.9807,-0.903269,1.9807,-2.01591C5.51283,2.25718,4.6249,1.35391,3.53017,1.35391L3.53017,1.35391z"/>
      </g>
     </g>
    </g>
    <g  id="maul1" transform="matrix(1, 0, 0, 1, 7.2, 0)">
     <rect width="4.98066" x="1.03886" y="6.76555" fill="#103656"  height="2.02687" stroke-width="0"/>
     <rect width="4.98066" x="1.03886" y="8.79343" fill="#254E89"  height="2.10264" stroke-width="0"/>
     <rect width="2.43839" x="2.31" y="8.81935" fill="#254E89"  height="2.52536" stroke-width="0"/>
     <rect width="4.57492" x="1.24271" y="6.94301" fill="#8D8C8C"  height="3.8065" stroke-width="0"/>
     <path fill="#A0A0A0"  d="M3.53017,10.5262c1.08492,0,1.96795,-0.654023,1.96795,-1.46557l-3.93983,0C1.56025,9.87214,2.4423,10.5262,3.53017,10.5262z"/>
     <path fill="#565656"  d="M3.53017,7.60205c-1.08688,0,-1.97188,0.654023,-1.97188,1.46258l3.93983,0C5.49715,8.25602,4.61706,7.60205,3.53017,7.60205z"/>
     <ellipse fill="#383838" cx="3.52919"  cy="9.06458" rx="1.52693" ry="1.13457" stroke-width="0"/>
     <g >
      <polygon fill="#919291" points="2.22081,8.38562,1.57201,7.46143,1.24271,7.43551,1.30446,6.9161,5.81763,6.9799,5.7549,7.4993,5.54321,7.43551,4.82483,8.38562" />
      <g >
       <path fill="#57585A"  d="M5.69218,7.04371l0,0.328008L5.54419,7.37172L5.48049,7.37172L5.44422,7.42356L4.79444,8.32183L2.28354,8.32183L1.62297,7.42255L1.58476,7.37172L1.52301,7.37172L1.36914,7.37172L1.36914,7.04371L5.69218,7.04371M5.81763,6.9161L1.24271,6.9161l0,0.583237l0.279317,0l0.698782,0.950126l2.6344,0l0.687021,-0.950126l0.273437,0L5.81763,6.9161L5.81763,6.9161z"/>
      </g>
     </g>
     <rect width="2.05224" x="2.50405" y="10.7356" fill="#8C8C8C"  height="1.50047" stroke-width="0"/>
    </g>
    <rect width="2.26969" x="9.66874" y="7.91093" fill="none"  height="4.32608" id="connector1pin" stroke-width="0"/>
    <g  id="plus2" transform="matrix(1, 0, 0, 1, 14.4, 0)">
     <g >
      <path fill="#3A5C8E"  d="M3.53017,5.90316c1.37208,0,2.48935,-1.13457,2.48935,-2.53235L1.03985,3.37081C1.03886,4.76958,2.15515,5.90316,3.53017,5.90316z"/>
      <path fill="#123C66"  d="M3.53017,0.839462c-1.37404,0,-2.49033,1.13557,-2.49033,2.53135l4.97968,0C6.01952,1.97304,4.90422,0.839462,3.53017,0.839462z"/>
     </g>
     <g >
      <g >
       <path fill="#8B8B8B"  d="M3.53017,5.4246c-1.11531,0,-2.02088,-0.921218,-2.02088,-2.05579c0,-1.13257,0.905573,-2.05479,2.02088,-2.05479c1.11433,0,2.0199,0.921218,2.0199,2.05479C5.54909,4.50338,4.64352,5.4246,3.53017,5.4246L3.53017,5.4246z"/>
       <path  d="M3.53017,1.35391c1.09472,0,1.9807,0.903269,1.9807,2.01491c0,1.11264,-0.885974,2.01591,-1.9807,2.01591S1.54751,4.48145,1.54751,3.36882C1.54653,2.25718,2.43446,1.35391,3.53017,1.35391M3.53017,1.28013c-1.13393,0,-2.05812,0.938167,-2.05812,2.09168c0,1.15351,0.922234,2.09367,2.05812,2.09367c1.13197,0,2.05616,-0.937166,2.05616,-2.09367C5.58536,2.21829,4.66312,1.28013,3.53017,1.28013L3.53017,1.28013z"/>
      </g>
      <g >
       <path fill="#707070"  d="M1.6073,2.89724C1.57103,3.04978,1.54653,3.2093,1.54653,3.37181c0,0.164503,0.0245015,0.321029,0.0607636,0.477557l3.84379,0c0.0362622,-0.152539,0.0607636,-0.311059,0.0607636,-0.477557c0,-0.162509,-0.0225413,-0.319036,-0.0607636,-0.474566L1.6073,2.89724z"/>
      </g>
      <g >
       <rect width="0.933019" x="3.06269" y="1.66198" fill="#545252"  height="3.41767" stroke-width="0"/>
       <rect width="2.9392" x="2.06009" y="2.89724" fill="#545252"  height="0.948132" stroke-width="0"/>
      </g>
      <g opacity="0.5" >
       <path  d="M3.53017,1.5204c1.00064,0,1.81703,0.830491,1.81703,1.84841c0,1.01992,-0.816386,1.84941,-1.81703,1.84941c-1.0026,0,-1.81899,-0.830491,-1.81899,-1.84941C1.7102,2.35089,2.52659,1.5204,3.53017,1.5204M3.53017,1.35391c-1.09472,0,-1.98266,0.903269,-1.98266,2.01491c0,1.11264,0.887933,2.01591,1.98266,2.01591s1.9807,-0.903269,1.9807,-2.01591C5.51283,2.25718,4.6249,1.35391,3.53017,1.35391L3.53017,1.35391z"/>
      </g>
     </g>
    </g>
    <g  id="maul2" transform="matrix(1, 0, 0, 1, 14.4, 0)">
     <rect width="4.98066" x="1.03886" y="6.76555" fill="#103656"  height="2.02687" stroke-width="0"/>
     <rect width="4.98066" x="1.03886" y="8.79343" fill="#254E89"  height="2.10264" stroke-width="0"/>
     <rect width="2.43839" x="2.31" y="8.81935" fill="#254E89"  height="2.52536" stroke-width="0"/>
     <rect width="4.57492" x="1.24271" y="6.94301" fill="#8D8C8C"  height="3.8065" stroke-width="0"/>
     <path fill="#A0A0A0"  d="M3.53017,10.5262c1.08492,0,1.96795,-0.654023,1.96795,-1.46557l-3.93983,0C1.56025,9.87214,2.4423,10.5262,3.53017,10.5262z"/>
     <path fill="#565656"  d="M3.53017,7.60205c-1.08688,0,-1.97188,0.654023,-1.97188,1.46258l3.93983,0C5.49715,8.25602,4.61706,7.60205,3.53017,7.60205z"/>
     <ellipse fill="#383838" cx="3.52919"  cy="9.06458" rx="1.52693" ry="1.13457" stroke-width="0"/>
     <g >
      <polygon fill="#919291" points="2.22081,8.38562,1.57201,7.46143,1.24271,7.43551,1.30446,6.9161,5.81763,6.9799,5.7549,7.4993,5.54321,7.43551,4.82483,8.38562" />
      <g >
       <path fill="#57585A"  d="M5.69218,7.04371l0,0.328008L5.54419,7.37172L5.48049,7.37172L5.44422,7.42356L4.79444,8.32183L2.28354,8.32183L1.62297,7.42255L1.58476,7.37172L1.52301,7.37172L1.36914,7.37172L1.36914,7.04371L5.69218,7.04371M5.81763,6.9161L1.24271,6.9161l0,0.583237l0.279317,0l0.698782,0.950126l2.6344,0l0.687021,-0.950126l0.273437,0L5.81763,6.9161L5.81763,6.9161z"/>
      </g>
     </g>
     <rect width="2.05224" x="2.50405" y="10.7356" fill="#8C8C8C"  height="1.50047" stroke-width="0"/>
    </g>
    <rect width="2.26969" x="16.8687" y="7.91093" fill="none"  height="4.32608" id="connector2pin" stroke-width="0"/>
   </g>
  </g>
 </g>
 <path fill="none" stroke="#8c8c8c" stroke-linejoin="round" stroke-linecap="round" stroke-width="2.90997" d="M39.8993,39.0984L38.7237,36.9684"/>
 <path fill="none" stroke="#8c8c8c" stroke-linejoin="round" stroke-linecap="round" stroke-width="2.90997" d="M39.8993,64.3682L38.7237,65.7684"/>
 <g partID="6396800">
  <g transform="translate(43.3382,35.8755)">
   <g transform="matrix(2.22045e-16,1,-1,2.22045e-16,0,0)">
    <g  id="breadboard">
     <rect width="0.719993" x="1.45499" y="2.39198" fill="none"  height="0.719993" id="connector0pin"/>
     <rect width="0.720993" x="28.1647" y="2.39198" fill="none"  height="0.719993" id="connector1pin"/>
     <line fill="none"  stroke="#8C8C8C" id="connector0leg" stroke-linecap="round" y1="3.43897" stroke-width="2.90997" x1="1.45499" y2="3.43897" x2="3.22297"/>
     <line fill="none"  stroke="#8C8C8C" id="connector1leg" stroke-linecap="round" y1="3.43897" stroke-width="2.90997" x1="30.2597" y2="3.43897" x2="28.4927"/>
     <path fill="none"  stroke="#8C8C8C" stroke-width="2.90997" d="M2.50297,3.43897l26.7157,0"/>
     <path fill="#7BC6B8"  id="body" d="M10.6549,0.301997c-0.359996,-0.165998,-0.97899,-0.294997,-1.37499,-0.294997L7.29293,0.00699993c-0.395996,0,-0.719993,0.323997,-0.719993,0.719993l0,5.35595c0,0.395996,0.323997,0.719993,0.719993,0.719993L9.27991,6.80293c0.395996,0,1.01499,-0.135999,1.37499,-0.295997l0.0719993,-0.0349997c0.359996,-0.164998,0.97899,-0.294997,1.37499,-0.294997l7.18493,0c0.396996,0,1.01599,0.136999,1.37499,0.294997l0.0719993,0.0349997c0.360996,0.165998,0.97899,0.295997,1.37599,0.295997l1.98698,0c0.395996,0,0.719993,-0.322997,0.719993,-0.719993L24.8168,0.726993c0,-0.395996,-0.322997,-0.719993,-0.719993,-0.719993l-1.98698,0c-0.396996,0,-1.01499,0.136999,-1.37599,0.294997l-0.0719993,0.0359996c-0.358996,0.165998,-0.97799,0.294997,-1.37499,0.294997l-7.18493,0c-0.395996,0,-1.01499,-0.136999,-1.37499,-0.294997L10.6549,0.301997z"/>
     <rect width="0.702993" x="22.4258" y="0" fill="#ad9f4e"  height="6.79593" id="gold_band"/>
     <rect width="1.85098" x="15.1398" y="0.632994" fill="#000000"  height="5.53694" id="band_3"/>
     <rect width="1.84998" x="12.1599" y="0.632994" fill="#000000"  height="5.53694" id="band_2_nd"/>
     <path fill="#ff4d00"  id="band_rd_multiplier" d="M18.0038,0.635994c0,0,1.19699,0,1.39999,0s0.437996,-0.0629994,0.437996,-0.0629994l0,5.67194c0,0,-0.202998,-0.0649994,-0.437996,-0.0649994s-1.39999,-0.00699993,-1.39999,-0.00699993L18.0038,0.635994z"/>
     <path fill="#8a3d06"  id="band_1_st" d="M11.0359,0.445996c-0.114999,-0.0359996,-0.222998,-0.0719993,-0.309997,-0.114999l-0.0719993,-0.0359996C10.2949,0.129999,9.6759,0,9.27991,0L9.19291,0l0,6.79593L9.27991,6.79593c0.395996,0,1.01499,-0.136999,1.37499,-0.294997l0.0719993,-0.0359996c0.0859991,-0.0439996,0.194998,-0.0789992,0.309997,-0.114999L11.0369,0.445996z"/>
     <path fill="#000000"  fill-opacity="0.4" id="Shadow" d="M24.1188,3.89596L24.1188,3.89596c0,0.379996,-0.129999,0.698993,-0.294997,0.698993l-1.92298,0c-0.379996,0,-0.97799,-0.0559994,-1.33199,-0.121999l-0.0729993,-0.0159998c-0.344997,-0.0649994,-0.947991,-0.121999,-1.33299,-0.121999l-6.94693,0c-0.381996,0,-0.97899,0.0569994,-1.33199,0.121999l-0.0719993,0.0149999c-0.344997,0.0659993,-0.942991,0.122999,-1.33199,0.122999L9.16291,4.59495L8.16192,4.59495l-0.309997,0c-0.381996,0,-0.697993,0.292997,-0.697993,0.644994l0,0.246998l0,0.158998l0,0.172998c0,0.359996,0.315997,0.645994,0.697993,0.645994l1.61998,0c0.380996,0,0.97899,-0.122999,1.33199,-0.267997l0.0719993,-0.0269997c0.345997,-0.141999,0.95099,-0.265997,1.33199,-0.265997l6.94593,0c0.379996,0,0.97799,0.123999,1.33399,0.265997l0.0739993,0.0279997c0.345997,0.144999,0.944991,0.266997,1.33399,0.266997l2.22498,0c0.380996,0,0.698993,-0.294997,0.698993,-0.644994L24.8198,5.27895L24.8198,4.30596L24.8198,2.46198C24.5428,2.56997,24.1188,2.87297,24.1188,3.89596z"/>
     <rect width="0.702993" x="22.4258" y="3.28997"  height="3.15297" id="ShadowExtra"/>
     <path fill="#FFFFFF"  id="ReflexRight" d="M20.1588,0.892991c0.229998,0,0.490995,-0.100999,0.661993,-0.172998c0.201998,-0.0789992,0.576994,-0.143999,0.96699,-0.143999l1.46099,0c0.224998,0,0.224998,0.244998,0.224998,0.374996c0,0.129999,-0.0159998,0.381996,-0.224998,0.381996l-3.06097,0c-0.106999,0,-0.229998,-0.114999,-0.229998,-0.223998C19.9638,1.02199,20.0358,0.892991,20.1588,0.892991z"/>
     <circle fill="#FFFFFF" cx="7.40793"  cy="0.942991" id="ReflexLeft" r="0.431996"/>
     <rect width="0.702993" x="22.4258" y="0.229998" fill="#FFFF33"  height="1.61998" id="Reflex_gold"/>
     <rect width="0.702993" x="22.4258" y="0.589994" fill="#FFFFFF"  height="0.748993" id="Reflex_extra"/>
    </g>
   </g>
  </g>
 </g>
 <path fill="none" stroke="#8c8c8c" stroke-linejoin="round" stroke-linecap="round" stroke-width="2.90997" d="M47.0993,39.0984L45.9237,36.9684"/>
 <path fill="none" stroke="#8c8c8c" stroke-linejoin="round" stroke-linecap="round" stroke-width="2.90997" d="M47.0993,64.3682L45.9237,65.7684"/>
 <g partID="6396640">
  <g transform="translate(50.5382,35.8755)">
   <g transform="matrix(2.22045e-16,1,-1,2.22045e-16,0,0)">
    <g  id="breadboard">
     <rect width="0.719993" x="1.45499" y="2.39198" fill="none"  height="0.719993" id="connector0pin"/>
     <rect width="0.720993" x="28.1647" y="2.39198" fill="none"  height="0.719993" id="connector1pin"/>
     <line fill="none"  stroke="#8C8C8C" id="connector0leg" stroke-linecap="round" y1="3.43897" stroke-width="2.90997" x1="1.45499" y2="3.43897" x2="3.22297"/>
     <line fill="none"  stroke="#8C8C8C" id="connector1leg" stroke-linecap="round" y1="3.43897" stroke-width="2.90997" x1="30.2597" y2="3.43897" x2="28.4927"/>
     <path fill="none"  stroke="#8C8C8C" stroke-width="2.90997" d="M2.50297,3.43897l26.7157,0"/>
     <path fill="#7BC6B8"  id="body" d="M10.6549,0.301997c-0.359996,-0.165998,-0.97899,-0.294997,-1.37499,-0.294997L7.29293,0.00699993c-0.395996,0,-0.719993,0.323997,-0.719993,0.719993l0,5.35595c0,0.395996,0.323997,0.719993,0.719993,0.719993L9.27991,6.80293c0.395996,0,1.01499,-0.135999,1.37499,-0.295997l0.0719993,-0.0349997c0.359996,-0.164998,0.97899,-0.294997,1.37499,-0.294997l7.18493,0c0.396996,0,1.01599,0.136999,1.37499,0.294997l0.0719993,0.0349997c0.360996,0.165998,0.97899,0.295997,1.37599,0.295997l1.98698,0c0.395996,0,0.719993,-0.322997,0.719993,-0.719993L24.8168,0.726993c0,-0.395996,-0.322997,-0.719993,-0.719993,-0.719993l-1.98698,0c-0.396996,0,-1.01499,0.136999,-1.37599,0.294997l-0.0719993,0.0359996c-0.358996,0.165998,-0.97799,0.294997,-1.37499,0.294997l-7.18493,0c-0.395996,0,-1.01499,-0.136999,-1.37499,-0.294997L10.6549,0.301997z"/>
     <rect width="0.702993" x="22.4258" y="0" fill="#ad9f4e"  height="6.79593" id="gold_band"/>
     <rect width="1.85098" x="15.1398" y="0.632994" fill="#000000"  height="5.53694" id="band_3"/>
     <rect width="1.84998" x="12.1599" y="0.632994" fill="#000000"  height="5.53694" id="band_2_nd"/>
     <path fill="#ff4d00"  id="band_rd_multiplier" d="M18.0038,0.635994c0,0,1.19699,0,1.39999,0s0.437996,-0.0629994,0.437996,-0.0629994l0,5.67194c0,0,-0.202998,-0.0649994,-0.437996,-0.0649994s-1.39999,-0.00699993,-1.39999,-0.00699993L18.0038,0.635994z"/>
     <path fill="#8a3d06"  id="band_1_st" d="M11.0359,0.445996c-0.114999,-0.0359996,-0.222998,-0.0719993,-0.309997,-0.114999l-0.0719993,-0.0359996C10.2949,0.129999,9.6759,0,9.27991,0L9.19291,0l0,6.79593L9.27991,6.79593c0.395996,0,1.01499,-0.136999,1.37499,-0.294997l0.0719993,-0.0359996c0.0859991,-0.0439996,0.194998,-0.0789992,0.309997,-0.114999L11.0369,0.445996z"/>
     <path fill="#000000"  fill-opacity="0.4" id="Shadow" d="M24.1188,3.89596L24.1188,3.89596c0,0.379996,-0.129999,0.698993,-0.294997,0.698993l-1.92298,0c-0.379996,0,-0.97799,-0.0559994,-1.33199,-0.121999l-0.0729993,-0.0159998c-0.344997,-0.0649994,-0.947991,-0.121999,-1.33299,-0.121999l-6.94693,0c-0.381996,0,-0.97899,0.0569994,-1.33199,0.121999l-0.0719993,0.0149999c-0.344997,0.0659993,-0.942991,0.122999,-1.33199,0.122999L9.16291,4.59495L8.16192,4.59495l-0.309997,0c-0.381996,0,-0.697993,0.292997,-0.697993,0.644994l0,0.246998l0,0.158998l0,0.172998c0,0.359996,0.315997,0.645994,0.697993,0.645994l1.61998,0c0.380996,0,0.97899,-0.122999,1.33199,-0.267997l0.0719993,-0.0269997c0.345997,-0.141999,0.95099,-0.265997,1.33199,-0.265997l6.94593,0c0.379996,0,0.97799,0.123999,1.33399,0.265997l0.0739993,0.0279997c0.345997,0.144999,0.944991,0.266997,1.33399,0.266997l2.22498,0c0.380996,0,0.698993,-0.294997,0.698993,-0.644994L24.8198,5.27895L24.8198,4.30596L24.8198,2.46198C24.5428,2.56997,24.1188,2.87297,24.1188,3.89596z"/>
     <rect width="0.702993" x="22.4258" y="3.28997"  height="3.15297" id="ShadowExtra"/>
     <path fill="#FFFFFF"  id="ReflexRight" d="M20.1588,0.892991c0.229998,0,0.490995,-0.100999,0.661993,-0.172998c0.201998,-0.0789992,0.576994,-0.143999,0.96699,-0.143999l1.46099,0c0.224998,0,0.224998,0.244998,0.224998,0.374996c0,0.129999,-0.0159998,0.381996,-0.224998,0.381996l-3.06097,0c-0.106999,0,-0.229998,-0.114999,-0.229998,-0.223998C19.9638,1.02199,20.0358,0.892991,20.1588,0.892991z"/>
     <circle fill="#FFFFFF" cx="7.40793"  cy="0.942991" id="ReflexLeft" r="0.431996"/>
     <rect width="0.702993" x="22.4258" y="0.229998" fill="#FFFF33"  height="1.61998" id="Reflex_gold"/>
     <rect width="0.702993" x="22.4258" y="0.589994" fill="#FFFFFF"  height="0.748993" id="Reflex_extra"/>
    </g>
   </g>
  </g>
 </g>
 <path fill="none" stroke="#8c8c8c" stroke-linejoin="round" stroke-linecap="round" stroke-width="2.90997" d="M12.0941,22.447L9.92374,22.5684"/>
 <path fill="none" stroke="#8c8c8c" stroke-linejoin="round" stroke-linecap="round" stroke-width="2.90997" d="M37.3638,22.447L38.7237,22.5684"/>
 <g partID="6396890">
  <g transform="translate(8.8711,19.008)">
   <g  id="breadboard">
    <rect width="0.719993" x="1.45499" y="2.39198" fill="none"  height="0.719993" id="connector0pin"/>
    <rect width="0.720993" x="28.1647" y="2.39198" fill="none"  height="0.719993" id="connector1pin"/>
    <line fill="none"  stroke="#8C8C8C" id="connector0leg" stroke-linecap="round" y1="3.43897" stroke-width="2.90997" x1="1.45499" y2="3.43897" x2="3.22297"/>
    <line fill="none"  stroke="#8C8C8C" id="connector1leg" stroke-linecap="round" y1="3.43897" stroke-width="2.90997" x1="30.2597" y2="3.43897" x2="28.4927"/>
    <path fill="none"  stroke="#8C8C8C" stroke-width="2.90997" d="M2.50297,3.43897l26.7157,0"/>
    <path fill="#7BC6B8"  id="body" d="M10.6549,0.301997c-0.359996,-0.165998,-0.97899,-0.294997,-1.37499,-0.294997L7.29293,0.00699993c-0.395996,0,-0.719993,0.323997,-0.719993,0.719993l0,5.35595c0,0.395996,0.323997,0.719993,0.719993,0.719993L9.27991,6.80293c0.395996,0,1.01499,-0.135999,1.37499,-0.295997l0.0719993,-0.0349997c0.359996,-0.164998,0.97899,-0.294997,1.37499,-0.294997l7.18493,0c0.396996,0,1.01599,0.136999,1.37499,0.294997l0.0719993,0.0349997c0.360996,0.165998,0.97899,0.295997,1.37599,0.295997l1.98698,0c0.395996,0,0.719993,-0.322997,0.719993,-0.719993L24.8168,0.726993c0,-0.395996,-0.322997,-0.719993,-0.719993,-0.719993l-1.98698,0c-0.396996,0,-1.01499,0.136999,-1.37599,0.294997l-0.0719993,0.0359996c-0.358996,0.165998,-0.97799,0.294997,-1.37499,0.294997l-7.18493,0c-0.395996,0,-1.01499,-0.136999,-1.37499,-0.294997L10.6549,0.301997z"/>
    <rect width="0.702993" x="22.4258" y="0" fill="#8a3d06"  height="6.79593" id="gold_band"/>
    <rect width="1.85098" x="15.1398" y="0.632994" fill="#000000"  height="5.53694" id="band_3"/>
    <rect width="1.84998" x="12.1599" y="0.632994" fill="#8210d2"  height="5.53694" id="band_2_nd"/>
    <path fill="#c40808"  id="band_rd_multiplier" d="M18.0038,0.635994c0,0,1.19699,0,1.39999,0s0.437996,-0.0629994,0.437996,-0.0629994l0,5.67194c0,0,-0.202998,-0.0649994,-0.437996,-0.0649994s-1.39999,-0.00699993,-1.39999,-0.00699993L18.0038,0.635994z"/>
    <path fill="#ffd500"  id="band_1_st" d="M11.0359,0.445996c-0.114999,-0.0359996,-0.222998,-0.0719993,-0.309997,-0.114999l-0.0719993,-0.0359996C10.2949,0.129999,9.6759,0,9.27991,0L9.19291,0l0,6.79593L9.27991,6.79593c0.395996,0,1.01499,-0.136999,1.37499,-0.294997l0.0719993,-0.0359996c0.0859991,-0.0439996,0.194998,-0.0789992,0.309997,-0.114999L11.0369,0.445996z"/>
    <path fill="#000000"  fill-opacity="0.4" id="Shadow" d="M24.1188,3.89596L24.1188,3.89596c0,0.379996,-0.129999,0.698993,-0.294997,0.698993l-1.92298,0c-0.379996,0,-0.97799,-0.0559994,-1.33199,-0.121999l-0.0729993,-0.0159998c-0.344997,-0.0649994,-0.947991,-0.121999,-1.33299,-0.121999l-6.94693,0c-0.381996,0,-0.97899,0.0569994,-1.33199,0.121999l-0.0719993,0.0149999c-0.344997,0.0659993,-0.942991,0.122999,-1.33199,0.122999L9.16291,4.59495L8.16192,4.59495l-0.309997,0c-0.381996,0,-0.697993,0.292997,-0.697993,0.644994l0,0.246998l0,0.158998l0,0.172998c0,0.359996,0.315997,0.645994,0.697993,0.645994l1.61998,0c0.380996,0,0.97899,-0.122999,1.33199,-0.267997l0.0719993,-0.0269997c0.345997,-0.141999,0.95099,-0.265997,1.33199,-0.265997l6.94593,0c0.379996,0,0.97799,0.123999,1.33399,0.265997l0.0739993,0.0279997c0.345997,0.144999,0.944991,0.266997,1.33399,0.266997l2.22498,0c0.380996,0,0.698993,-0.294997,0.698993,-0.644994L24.8198,5.27895L24.8198,4.30596L24.8198,2.46198C24.5428,2.56997,24.1188,2.87297,24.1188,3.89596z"/>
    <rect width="0.702993" x="22.4258" y="3.28997"  height="3.15297" id="ShadowExtra"/>
    <path fill="#FFFFFF"  id="ReflexRight" d="M20.1588,0.892991c0.229998,0,0.490995,-0.100999,0.661993,-0.172998c0.201998,-0.0789992,0.576994,-0.143999,0.96699,-0.143999l1.46099,0c0.224998,0,0.224998,0.244998,0.224998,0.374996c0,0.129999,-0.0159998,0.381996,-0.224998,0.381996l-3.06097,0c-0.106999,0,-0.229998,-0.114999,-0.229998,-0.223998C19.9638,1.02199,20.0358,0.892991,20.1588,0.892991z"/>
    <circle fill="#FFFFFF" cx="7.40793"  cy="0.942991" id="ReflexLeft" r="0.431996"/>
    <rect width="0.702993" x="22.4258" y="0.229998" fill="#FFFF33"  height="1.61998" id="Reflex_gold"/>
    <rect width="0.702993" x="22.4258" y="0.589994" fill="#FFFFFF"  height="0.748993" id="Reflex_extra"/>
   </g>
  </g>
 </g>
 <path fill="none" stroke="#8c8c8c" stroke-linejoin="round" stroke-linecap="round" stroke-width="2.90997" d="M19.2941,15.247L9.92374,15.3684"/>
 <path fill="none" stroke="#8c8c8c" stroke-linejoin="round" stroke-linecap="round" stroke-width="2.90997" d="M44.5638,15.247L45.9237,15.3684"/>
 <g partID="6396950">
  <g transform="translate(16.0711,11.808)">
   <g  id="breadboard">
    <rect width="0.719993" x="1.45499" y="2.39198" fill="none"  height="0.719993" id="connector0pin"/>
    <rect width="0.720993" x="28.1647" y="2.39198" fill="none"  height="0.719993" id="connector1pin"/>
    <line fill="none"  stroke="#8C8C8C" id="connector0leg" stroke-linecap="round" y1="3.43897" stroke-width="2.90997" x1="1.45499" y2="3.43897" x2="3.22297"/>
    <line fill="none"  stroke="#8C8C8C" id="connector1leg" stroke-linecap="round" y1="3.43897" stroke-width="2.90997" x1="30.2597" y2="3.43897" x2="28.4927"/>
    <path fill="none"  stroke="#8C8C8C" stroke-width="2.90997" d="M2.50297,3.43897l26.7157,0"/>
    <path fill="#7BC6B8"  id="body" d="M10.6549,0.301997c-0.359996,-0.165998,-0.97899,-0.294997,-1.37499,-0.294997L7.29293,0.00699993c-0.395996,0,-0.719993,0.323997,-0.719993,0.719993l0,5.35595c0,0.395996,0.323997,0.719993,0.719993,0.719993L9.27991,6.80293c0.395996,0,1.01499,-0.135999,1.37499,-0.295997l0.0719993,-0.0349997c0.359996,-0.164998,0.97899,-0.294997,1.37499,-0.294997l7.18493,0c0.396996,0,1.01599,0.136999,1.37499,0.294997l0.0719993,0.0349997c0.360996,0.165998,0.97899,0.295997,1.37599,0.295997l1.98698,0c0.395996,0,0.719993,-0.322997,0.719993,-0.719993L24.8168,0.726993c0,-0.395996,-0.322997,-0.719993,-0.719993,-0.719993l-1.98698,0c-0.396996,0,-1.01499,0.136999,-1.37599,0.294997l-0.0719993,0.0359996c-0.358996,0.165998,-0.97799,0.294997,-1.37499,0.294997l-7.18493,0c-0.395996,0,-1.01499,-0.136999,-1.37499,-0.294997L10.6549,0.301997z"/>
    <rect width="0.702993" x="22.4258" y="0" fill="#8a3d06"  height="6.79593" id="gold_band"/>
    <rect width="1.85098" x="15.1398" y="0.632994" fill="#000000"  height="5.53694" id="band_3"/>
    <rect width="1.84998" x="12.1599" y="0.632994" fill="#8210d2"  height="5.53694" id="band_2_nd"/>
    <path fill="#c40808"  id="band_rd_multiplier" d="M18.0038,0.635994c0,0,1.19699,0,1.39999,0s0.437996,-0.0629994,0.437996,-0.0629994l0,5.67194c0,0,-0.202998,-0.0649994,-0.437996,-0.0649994s-1.39999,-0.00699993,-1.39999,-0.00699993L18.0038,0.635994z"/>
    <path fill="#ffd500"  id="band_1_st" d="M11.0359,0.445996c-0.114999,-0.0359996,-0.222998,-0.0719993,-0.309997,-0.114999l-0.0719993,-0.0359996C10.2949,0.129999,9.6759,0,9.27991,0L9.19291,0l0,6.79593L9.27991,6.79593c0.395996,0,1.01499,-0.136999,1.37499,-0.294997l0.0719993,-0.0359996c0.0859991,-0.0439996,0.194998,-0.0789992,0.309997,-0.114999L11.0369,0.445996z"/>
    <path fill="#000000"  fill-opacity="0.4" id="Shadow" d="M24.1188,3.89596L24.1188,3.89596c0,0.379996,-0.129999,0.698993,-0.294997,0.698993l-1.92298,0c-0.379996,0,-0.97799,-0.0559994,-1.33199,-0.121999l-0.0729993,-0.0159998c-0.344997,-0.0649994,-0.947991,-0.121999,-1.33299,-0.121999l-6.94693,0c-0.381996,0,-0.97899,0.0569994,-1.33199,0.121999l-0.0719993,0.0149999c-0.344997,0.0659993,-0.942991,0.122999,-1.33199,0.122999L9.16291,4.59495L8.16192,4.59495l-0.309997,0c-0.381996,0,-0.697993,0.292997,-0.697993,0.644994l0,0.246998l0,0.158998l0,0.172998c0,0.359996,0.315997,0.645994,0.697993,0.645994l1.61998,0c0.380996,0,0.97899,-0.122999,1.33199,-0.267997l0.0719993,-0.0269997c0.345997,-0.141999,0.95099,-0.265997,1.33199,-0.265997l6.94593,0c0.379996,0,0.97799,0.123999,1.33399,0.265997l0.0739993,0.0279997c0.345997,0.144999,0.944991,0.266997,1.33399,0.266997l2.22498,0c0.380996,0,0.698993,-0.294997,0.698993,-0.644994L24.8198,5.27895L24.8198,4.30596L24.8198,2.46198C24.5428,2.56997,24.1188,2.87297,24.1188,3.89596z"/>
    <rect width="0.702993" x="22.4258" y="3.28997"  height="3.15297" id="ShadowExtra"/>
    <path fill="#FFFFFF"  id="ReflexRight" d="M20.1588,0.892991c0.229998,0,0.490995,-0.100999,0.661993,-0.172998c0.201998,-0.0789992,0.576994,-0.143999,0.96699,-0.143999l1.46099,0c0.224998,0,0.224998,0.244998,0.224998,0.374996c0,0.129999,-0.0159998,0.381996,-0.224998,0.381996l-3.06097,0c-0.106999,0,-0.229998,-0.114999,-0.229998,-0.223998C19.9638,1.02199,20.0358,0.892991,20.1588,0.892991z"/>
    <circle fill="#FFFFFF" cx="7.40793"  cy="0.942991" id="ReflexLeft" r="0.431996"/>
    <rect width="0.702993" x="22.4258" y="0.229998" fill="#FFFF33"  height="1.61998" id="Reflex_gold"/>
    <rect width="0.702993" x="22.4258" y="0.589994" fill="#FFFFFF"  height="0.748993" id="Reflex_extra"/>
   </g>
  </g>
 </g>
 <g partID="6389630">
  <g transform="translate(20.7237,26.1684)">
   <g  id="breadboard">
    <rect width="28.8" fill="#404040"  height="7.2"/>
    <rect width="2.78312" x="2.20843" y="2.20843" fill="none"  height="2.78312" id="connector0pin"/>
    <rect width="2.15829" x="2.51834" y="2.47054" fill="none"  height="2.25658" id="connector0terminal"/>
    <rect width="2.78312" x="2.20843" y="2.20843"  height="2.78312"/>
    <polygon fill="#2A2A29" points="1.18445,1.18445,2.20843,2.20843,4.99156,2.20843,6.01654,1.18445" />
    <polygon fill="#474747" points="6.01654,1.18445,4.99156,2.20843,4.99156,4.99156,6.01654,6.01654" />
    <polygon fill="#595959" points="6.01654,6.01654,4.99156,4.99156,2.20843,4.99156,1.18445,6.01654" />
    <polygon fill="#373737" points="1.18445,6.01654,2.20843,4.99156,2.20843,2.20843,1.18445,1.18445" />
    <rect width="2.78312" x="9.40846" y="2.20843" fill="none"  height="2.78312" id="connector1pin"/>
    <rect width="2.15829" x="9.71834" y="2.47054" fill="none"  height="2.25658" id="connector1terminal"/>
    <rect width="2.78312" x="9.40846" y="2.20843"  height="2.78312"/>
    <polygon fill="#2A2A29" points="8.38447,1.18445,9.40846,2.20843,12.1915,2.20843,13.2165,1.18445" />
    <polygon fill="#474747" points="13.2165,1.18445,12.1915,2.20843,12.1915,4.99156,13.2165,6.01654" />
    <polygon fill="#595959" points="13.2165,6.01654,12.1915,4.99156,9.40846,4.99156,8.38447,6.01654" />
    <polygon fill="#373737" points="8.38447,6.01654,9.40846,4.99156,9.40846,2.20843,8.38447,1.18445" />
    <rect width="2.78312" x="16.6085" y="2.20843" fill="none"  height="2.78312" id="connector2pin"/>
    <rect width="2.15829" x="16.9183" y="2.47054" fill="none"  height="2.25658" id="connector2terminal"/>
    <rect width="2.78312" x="16.6085" y="2.20843"  height="2.78312"/>
    <polygon fill="#2A2A29" points="15.5845,1.18445,16.6085,2.20843,19.3915,2.20843,20.4165,1.18445" />
    <polygon fill="#474747" points="20.4165,1.18445,19.3915,2.20843,19.3915,4.99156,20.4165,6.01654" />
    <polygon fill="#595959" points="20.4165,6.01654,19.3915,4.99156,16.6085,4.99156,15.5845,6.01654" />
    <polygon fill="#373737" points="15.5845,6.01654,16.6085,4.99156,16.6085,2.20843,15.5845,1.18445" />
    <rect width="2.78312" x="23.8085" y="2.20843" fill="none"  height="2.78312" id="connector3pin"/>
    <rect width="2.15829" x="24.1183" y="2.47054" fill="none"  height="2.25658" id="connector3terminal"/>
    <rect width="2.78312" x="23.8085" y="2.20843"  height="2.78312"/>
    <polygon fill="#2A2A29" points="22.7845,1.18445,23.8085,2.20843,26.5915,2.20843,27.6165,1.18445" />
    <polygon fill="#474747" points="27.6165,1.18445,26.5915,2.20843,26.5915,4.99156,27.6165,6.01654" />
    <polygon fill="#595959" points="27.6165,6.01654,26.5915,4.99156,23.8085,4.99156,22.7845,6.01654" />
    <polygon fill="#373737" points="22.7845,6.01654,23.8085,4.99156,23.8085,2.20843,22.7845,1.18445" />
   </g>
  </g>
 </g>
 <g partID="6396190">
  <line stroke="#d95821" stroke-linecap="round" y1="22.5684" x1="38.7237" y2="29.7684" stroke-width="3.2" x2="38.7237"/>
  <line stroke="#ff7033" stroke-linecap="round" y1="22.5684" x1="38.7237" y2="29.7684" stroke-width="1.6" x2="38.7237"/>
 </g>
 <g partID="6396300">
  <line stroke="#e6ab00" stroke-linecap="round" y1="65.7684" x1="45.9237" y2="87.3684" stroke-width="3.2" x2="45.9237"/>
  <line stroke="#ffe24d" stroke-linecap="round" y1="65.7684" x1="45.9237" y2="87.3684" stroke-width="1.6" x2="45.9237"/>
 </g>
 <g partID="6396330">
  <line stroke="#e6ab00" stroke-linecap="round" y1="36.9684" x1="45.9237" y2="29.7684" stroke-width="3.2" x2="45.9237"/>
  <line stroke="#ffe24d" stroke-linecap="round" y1="36.9684" x1="45.9237" y2="29.7684" stroke-width="1.6" x2="45.9237"/>
 </g>
 <g partID="6401510">
  <line stroke="#d95821" stroke-linecap="round" y1="36.9684" x1="38.6296" y2="29.7684" stroke-width="3.2" x2="38.7237"/>
  <line stroke="#ff7033" stroke-linecap="round" y1="36.9684" x1="38.6296" y2="29.7684" stroke-width="1.6" x2="38.7237"/>
 </g>
 <g partID="6401520">
  <line stroke="#d95821" stroke-linecap="round" y1="36.9684" x1="38.7237" y2="36.9684" stroke-width="3.2" x2="38.6296"/>
  <line stroke="#ff7033" stroke-linecap="round" y1="36.9684" x1="38.7237" y2="36.9684" stroke-width="1.6" x2="38.6296"/>
 </g>
 <g partID="6412280">
  <line stroke="#e6ab00" stroke-linecap="round" y1="15.3442" x1="45.948" y2="29.7684" stroke-width="3.2" x2="45.9237"/>
  <line stroke="#ffe24d" stroke-linecap="round" y1="15.3442" x1="45.948" y2="29.7684" stroke-width="1.6" x2="45.9237"/>
 </g>
 <g partID="6412290">
  <line stroke="#e6ab00" stroke-linecap="round" y1="15.3684" x1="45.9237" y2="15.3442" stroke-width="3.2" x2="45.948"/>
  <line stroke="#ffe24d" stroke-linecap="round" y1="15.3684" x1="45.9237" y2="15.3442" stroke-width="1.6" x2="45.948"/>
 </g>
 <g partID="6412720">
  <line stroke="#1b5bb3" stroke-linecap="round" y1="73.0032" x1="24.3237" y2="29.7684" stroke-width="3.2" x2="24.3237"/>
  <line stroke="#418dd9" stroke-linecap="round" y1="73.0032" x1="24.3237" y2="29.7684" stroke-width="1.6" x2="24.3237"/>
 </g>
 <g partID="6412730">
  <line stroke="#1b5bb3" stroke-linecap="round" y1="87.3684" x1="31.5238" y2="73.0032" stroke-width="3.2" x2="31.5585"/>
  <line stroke="#418dd9" stroke-linecap="round" y1="87.3684" x1="31.5238" y2="73.0032" stroke-width="1.6" x2="31.5585"/>
 </g>
 <g partID="6412820">
  <line stroke="#1b5bb3" stroke-linecap="round" y1="73.0032" x1="31.5585" y2="73.0032" stroke-width="3.2" x2="24.3237"/>
  <line stroke="#418dd9" stroke-linecap="round" y1="73.0032" x1="31.5585" y2="73.0032" stroke-width="1.6" x2="24.3237"/>
 </g>
 <g partID="6413030">
  <line stroke="#8c0000" stroke-linecap="round" y1="65.7684" x1="31.5585" y2="65.7684" stroke-width="3.2" x2="38.7237"/>
  <line stroke="#cc1414" stroke-linecap="round" y1="65.7684" x1="31.5585" y2="65.7684" stroke-width="1.6" x2="38.7237"/>
 </g>
 <g partID="6413040">
  <line stroke="#8c0000" stroke-linecap="round" y1="29.7684" x1="31.5237" y2="65.7684" stroke-width="3.2" x2="31.5585"/>
  <line stroke="#cc1414" stroke-linecap="round" y1="29.7684" x1="31.5237" y2="65.7684" stroke-width="1.6" x2="31.5585"/>
 </g>
 <g partID="6413170">
  <line stroke="#8c0000" stroke-linecap="round" y1="87.3684" x1="38.7237" y2="65.7684" stroke-width="3.2" x2="38.7237"/>
  <line stroke="#cc1414" stroke-linecap="round" y1="87.3684" x1="38.7237" y2="65.7684" stroke-width="1.6" x2="38.7237"/>
 </g>
 <g partID="6455960">
  <line stroke="#1b5bb3" stroke-linecap="round" y1="22.5684" x1="9.92374" y2="15.3684" stroke-width="3.2" x2="9.92374"/>
  <line stroke="#418dd9" stroke-linecap="round" y1="22.5684" x1="9.92374" y2="15.3684" stroke-width="1.6" x2="9.92374"/>
 </g>
 <g partID="6459980">
  <line stroke="#1b5bb3" stroke-linecap="round" y1="29.837" x1="9.92374" y2="22.5684" stroke-width="3.2" x2="9.92374"/>
  <line stroke="#418dd9" stroke-linecap="round" y1="29.837" x1="9.92374" y2="22.5684" stroke-width="1.6" x2="9.92374"/>
 </g>
 <g partID="6459990">
  <line stroke="#1b5bb3" stroke-linecap="round" y1="29.7684" x1="24.3237" y2="29.837" stroke-width="3.2" x2="9.92374"/>
  <line stroke="#418dd9" stroke-linecap="round" y1="29.7684" x1="24.3237" y2="29.837" stroke-width="1.6" x2="9.92374"/>
 </g>
 <g id="partLabel" partID="6396950">
  <g transform="translate(42.6829,13.5963)">
   <g fill="#000000" font-family="'DroidSans'" stroke="none" font-style="normal" fill-opacity="1" font-weight="normal" id="breadboardLabel" font-size="5">
    <text x="0" y="3.75">R4</text>
   </g>
  </g>
 </g>
 <g id="partLabel" partID="6396800">
  <g transform="translate(36.8956,61.7107)">
   <g fill="#000000" font-family="'DroidSans'" stroke="none" font-style="normal" fill-opacity="1" font-weight="normal" id="breadboardLabel" font-size="5">
    <text x="0" y="3.75">R6</text>
   </g>
  </g>
 </g>
 <g id="partLabel" partID="6389560">
  <g transform="translate(21.2254,81.8587)">
   <g fill="#000000" font-family="'DroidSans'" stroke="none" font-style="normal" fill-opacity="1" font-weight="normal" id="breadboardLabel" font-size="5">
    <text x="0" y="3.75">J1</text>
   </g>
  </g>
 </g>
 <g id="partLabel" partID="6389630">
  <g transform="translate(14.7785,32.8134)">
   <g fill="#000000" font-family="'DroidSans'" stroke="none" font-style="normal" fill-opacity="1" font-weight="normal" id="breadboardLabel" font-size="5">
    <text x="0" y="3.75">J2</text>
   </g>
  </g>
 </g>
 <g id="partLabel" partID="6396890">
  <g transform="translate(35.104,20.7963)">
   <g fill="#000000" font-family="'DroidSans'" stroke="none" font-style="normal" fill-opacity="1" font-weight="normal" id="breadboardLabel" font-size="5">
    <text x="0" y="3.75">R3</text>
   </g>
  </g>
 </g>
 <g id="partLabel" partID="6396640">
  <g transform="translate(43.9073,61.8989)">
   <g fill="#000000" font-family="'DroidSans'" stroke="none" font-style="normal" fill-opacity="1" font-weight="normal" id="breadboardLabel" font-size="5">
    <text x="0" y="3.75">R5</text>
   </g>
  </g>
 </g>
 <g id="partLabel" partID="6411180">
  <g fill="#000000" font-family="'DroidSans'" stroke="none" font-style="normal" fill-opacity="1" font-weight="normal" id="breadboardLabel" font-size="7">
   <text x="0" y="5.25">Power supply board</text>
  </g>
 </g>
</svg>
